<svg width="141" height="42" viewBox="0 0 141 42" fill="none" xmlns="http://www.w3.org/2000/svg">
<g clip-path="url(#clip0_896_227)">
<path d="M5.67579 5.85814C5.57871 3.07054 7.75061 0.5 10.6863 0.5H40.7684C43.7041 0.5 45.876 3.07054 45.7789 5.85814C45.6856 8.5359 45.8067 12.0046 46.6797 14.8329C47.5555 17.67 49.0323 19.4632 51.451 19.6936V22.3064C49.0323 22.5368 47.5555 24.33 46.6797 27.1671C45.8067 29.9954 45.6856 33.4641 45.7789 36.142C45.876 38.9295 43.7041 41.5 40.7684 41.5H10.6863C7.75061 41.5 5.57871 38.9295 5.67589 36.142C5.76904 33.4641 5.64795 29.9954 4.77489 27.1671C3.89922 24.33 2.4188 22.5368 0 22.3064V19.6936C2.4187 19.4632 3.89922 17.67 4.77489 14.8329C5.64795 12.0046 5.76904 8.5359 5.67579 5.85814Z" fill="url(#paint0_linear_896_227)"/>
<g filter="url(#filter0_d_896_227)">
<path d="M26.8411 31.8989C31.594 31.8989 34.4581 29.5717 34.4581 25.7333C34.4581 22.8319 32.4145 20.7313 29.3801 20.3988V20.2779C31.6095 19.9152 33.3589 17.8449 33.3589 15.5329C33.3589 12.2385 30.758 10.0925 26.7947 10.0925H17.8772V31.8989H26.8411ZM21.3451 12.858H25.9587C28.4668 12.858 29.891 13.9763 29.891 16.0013C29.891 18.1623 28.2345 19.3712 25.2311 19.3712H21.3451V12.858ZM21.3451 29.1335V21.9554H25.9277C29.2098 21.9554 30.9128 23.1643 30.9128 25.5218C30.9128 27.8792 29.2563 29.1335 26.1289 29.1335H21.3451Z" fill="url(#paint1_linear_896_227)"/>
<path d="M26.8411 31.8989C31.594 31.8989 34.4581 29.5717 34.4581 25.7333C34.4581 22.8319 32.4145 20.7313 29.3801 20.3988V20.2779C31.6095 19.9152 33.3589 17.8449 33.3589 15.5329C33.3589 12.2385 30.758 10.0925 26.7947 10.0925H17.8772V31.8989H26.8411ZM21.3451 12.858H25.9587C28.4668 12.858 29.891 13.9763 29.891 16.0013C29.891 18.1623 28.2345 19.3712 25.2311 19.3712H21.3451V12.858ZM21.3451 29.1335V21.9554H25.9277C29.2098 21.9554 30.9128 23.1643 30.9128 25.5218C30.9128 27.8792 29.2563 29.1335 26.1289 29.1335H21.3451Z" stroke="white" stroke-width="0.41"/>
</g>
</g>
<g clip-path="url(#clip1_896_227)">
<path d="M59.4887 12.8312C59.5556 12.8189 59.6105 12.7999 59.6651 12.8C61.92 12.8088 64.175 12.8054 66.4296 12.8369C67.198 12.8475 67.904 13.1186 68.5352 13.5679C69.9761 14.5932 70.1092 17.5224 68.1312 18.573C68.0306 18.6265 67.9303 18.6805 67.7937 18.7535C68.1696 18.9261 68.5394 19.0417 68.8494 19.2476C70.0391 20.038 70.5237 21.8064 69.9911 23.3596C69.5263 24.7147 68.4228 25.2743 67.1396 25.572C66.7181 25.6698 66.2767 25.7205 65.8438 25.7236C63.736 25.7388 61.6281 25.7304 59.4885 25.7304C59.4887 21.4356 59.4887 17.1402 59.4887 12.8312ZM61.7431 23.8399C63.3108 23.8399 64.8332 23.8757 66.3529 23.827C67.3082 23.7965 67.9984 22.7725 67.941 21.7766C67.8843 20.7949 67.2798 19.96 66.3454 19.9163C64.8388 19.846 63.3282 19.8659 61.8192 19.8502C61.7967 19.85 61.7738 19.8832 61.743 19.9071L61.7431 23.8399ZM61.7483 18.1696C63.1495 18.1696 64.5009 18.2206 65.8461 18.1526C66.8369 18.1025 67.396 17.3104 67.359 16.2275C67.3262 15.2688 66.76 14.6922 65.7408 14.6653C64.4629 14.6317 63.1836 14.6472 61.9048 14.6443C61.8528 14.6441 61.8007 14.6722 61.7483 14.6871V18.1696ZM131.622 16.3975H133.501V17.4049C133.711 17.2435 133.966 17.0643 134.201 16.8623C135.641 15.6263 139.057 15.778 140.226 18.2671C141.232 20.4093 141.188 22.5635 139.83 24.5579C139.078 25.6625 137.913 26.0572 136.594 25.9862C135.448 25.9244 134.439 25.564 133.644 24.5028V29.2H131.622C131.622 24.9287 131.622 20.6752 131.622 16.3975ZM133.531 21.1144C133.616 21.5835 133.663 22.0639 133.793 22.5198C134.086 23.5373 134.975 24.2896 135.897 24.3546C137.13 24.4416 138.015 23.9861 138.461 22.8931C139.027 21.5041 139.007 20.1032 138.179 18.8051C137.203 17.2738 134.863 17.4017 134.036 19.0059C133.696 19.6663 133.529 20.3614 133.531 21.1144ZM130.29 24.3942C130.29 24.7781 130.304 25.1679 130.28 25.5558C130.275 25.6516 130.155 25.8133 130.077 25.82C129.491 25.8688 128.895 25.9543 128.316 25.8939C127.806 25.8406 127.525 25.4081 127.367 24.9081C126.156 25.8941 124.767 26.1073 123.29 25.9243C122.054 25.7713 121.031 24.7567 120.943 23.6303C120.821 22.0778 121.418 21.0669 122.812 20.6988C123.789 20.4409 124.808 20.3372 125.808 20.1629C126.05 20.1207 126.295 20.0862 126.532 20.0215C126.987 19.8973 127.316 19.6454 127.349 19.1275C127.383 18.5921 127.176 18.175 126.673 17.9723C125.814 17.6268 124.939 17.6354 124.094 18.031C123.708 18.2115 123.479 18.5746 123.277 19.1914H121.296C121.297 18.4361 121.56 17.8013 122.062 17.2669C122.725 16.5609 123.589 16.2837 124.519 16.1864C125.493 16.0845 126.461 16.0891 127.407 16.4081C128.679 16.837 129.288 17.6764 129.286 19.0201C129.285 20.4465 129.286 21.8728 129.286 23.2994C129.285 24.3117 129.285 24.3117 130.29 24.3942ZM127.228 21.1755C126.604 21.2836 126.033 21.3665 125.469 21.4845C124.876 21.6085 124.271 21.7159 123.706 21.923C123.152 22.1261 122.963 22.6442 122.982 23.2005C122.999 23.7324 123.362 24.0305 123.831 24.1941C124.634 24.4747 125.439 24.4401 126.205 24.0818C126.753 23.8252 127.171 23.4056 127.22 22.7646C127.261 22.2307 127.228 21.6911 127.228 21.1755ZM76.2497 16.128C79.3568 16.0915 81.1788 18.369 80.9866 21.4701C80.9199 22.548 80.6303 23.5554 79.9208 24.4073C79.1562 25.3251 78.1724 25.8085 76.9931 25.9396C76.0082 26.0494 75.0512 25.9849 74.1387 25.5707C72.7797 24.9538 72.0045 23.8772 71.6785 22.4426C71.4549 21.4594 71.4646 20.4803 71.7153 19.5078C72.2683 17.3623 73.9204 16.1363 76.2497 16.128ZM73.545 21.0768C73.6266 21.532 73.6692 21.9986 73.7972 22.4403C74.1232 23.565 75.0108 24.3076 76.0257 24.3567C77.2802 24.4176 78.158 23.8898 78.6242 22.7213C79.0794 21.5806 79.0801 20.4131 78.581 19.2861C77.8416 17.6164 75.8272 17.1895 74.53 18.4305C73.7903 19.1381 73.5994 20.0784 73.545 21.0768ZM87.0296 16.1281C89.832 16.1237 91.7388 18.0122 91.7743 20.821C91.7893 22.0071 91.5961 23.138 90.8999 24.1316C89.9033 25.554 88.4637 26.0516 86.8064 25.9762C86.1958 25.9483 85.5627 25.8127 84.9936 25.5893C83.6574 25.0648 82.8607 24.032 82.5066 22.6497C82.1958 21.4359 82.2304 20.2297 82.6257 19.0434C83.232 17.2235 84.8953 16.1313 87.0296 16.1281ZM89.7157 20.8246C89.6705 20.5755 89.6259 20.0941 89.4916 19.6391C89.1503 18.4819 88.248 17.7794 87.1112 17.73C86.0406 17.6833 85.0777 18.3146 84.6624 19.4201C84.1734 20.7222 84.2094 22.0193 84.9463 23.2325C85.714 24.4964 87.4542 24.7734 88.5955 23.8304C89.4663 23.1108 89.6794 22.1173 89.7157 20.8246ZM107.043 18.9921C106.403 18.9921 105.78 18.9974 105.158 18.9854C105.081 18.984 104.962 18.9072 104.937 18.8384C104.587 17.8663 103.764 17.7507 102.912 17.7458C102.559 17.7437 102.183 17.8297 101.856 17.9668C101.158 18.2599 101.08 19.0505 101.735 19.4292C102.189 19.6919 102.723 19.833 103.235 19.9773C103.96 20.1815 104.709 20.3044 105.429 20.5221C107.271 21.0788 107.991 22.9254 106.959 24.4477C106.465 25.1778 105.725 25.573 104.877 25.7777C103.623 26.0803 102.375 26.1025 101.15 25.66C99.8386 25.1864 99.1461 24.2358 99.0439 22.7971H101.044C101.613 24.2816 103.22 24.8598 104.726 24.1012C105.074 23.9256 105.306 23.6759 105.33 23.2654C105.355 22.8267 105.185 22.4494 104.791 22.3026C104.089 22.0408 103.356 21.8613 102.636 21.65C102.039 21.475 101.423 21.3485 100.847 21.1206C99.7359 20.6806 99.2532 19.9235 99.26 18.7694C99.2659 17.7627 99.8544 16.9002 100.898 16.5219C102.334 16.0012 103.799 15.9364 105.242 16.5015C106.217 16.8835 106.798 17.6368 107.04 18.6511C107.062 18.7448 107.043 18.8485 107.043 18.9921ZM96.1825 16.3715H98.0339V17.8854H96.2197C96.2069 18.0667 96.1904 18.1935 96.1902 18.3203C96.1884 19.8484 96.1877 21.3764 96.1909 22.9042C96.1912 23.1075 96.207 23.3114 96.227 23.5139C96.2668 23.918 96.4911 24.1579 96.8979 24.1801C97.2707 24.2005 97.6456 24.1845 98.0403 24.1845V25.6982C97.1948 25.9075 96.3354 25.8964 95.5034 25.7111C94.5347 25.4954 94.1411 24.8288 94.1326 23.5672C94.1209 21.8501 94.1291 20.1327 94.1288 18.4155V17.9107H92.5911V16.3795H94.108V13.5757H96.1827C96.1825 14.4928 96.1825 15.4032 96.1825 16.3715ZM113.497 25.7565C112.7 25.7565 111.946 25.7813 111.195 25.7494C110.466 25.7185 109.905 25.2354 109.746 24.5144C109.655 24.1032 109.607 23.6837 109.603 23.2626C109.587 21.6471 109.596 20.0312 109.596 18.4154V17.9045H108.063V16.3936H109.573V13.5784H111.652V16.348H113.494V17.8699H111.726C111.705 18.007 111.678 18.1018 111.678 18.1969C111.676 19.8417 111.671 21.4866 111.682 23.1313C111.687 24.0012 111.915 24.2105 112.777 24.2044C113.008 24.2029 113.238 24.2042 113.497 24.2042L113.497 25.7565ZM116.955 16.4027V17.9956C117.753 16.6403 118.858 15.9341 120.489 16.1748V18.1399C119.714 18.0234 118.967 18.0026 118.305 18.4784C117.436 19.1027 117.133 20.0149 117.111 21.0205C117.078 22.5751 117.103 24.1311 117.103 25.7205H115.067V16.4026C115.683 16.4027 116.287 16.4027 116.955 16.4027Z" fill="#6610F2"/>
</g>
<defs>
<filter id="filter0_d_896_227" x="11.1121" y="4.96757" width="30.111" height="35.3363" filterUnits="userSpaceOnUse" color-interpolation-filters="sRGB">
<feFlood flood-opacity="0" result="BackgroundImageFix"/>
<feColorMatrix in="SourceAlpha" type="matrix" values="0 0 0 0 0 0 0 0 0 0 0 0 0 0 0 0 0 0 127 0" result="hardAlpha"/>
<feOffset dy="1.64"/>
<feGaussianBlur stdDeviation="3.28"/>
<feColorMatrix type="matrix" values="0 0 0 0 0 0 0 0 0 0 0 0 0 0 0 0 0 0 0.15 0"/>
<feBlend mode="normal" in2="BackgroundImageFix" result="effect1_dropShadow_896_227"/>
<feBlend mode="normal" in="SourceGraphic" in2="effect1_dropShadow_896_227" result="shape"/>
</filter>
<linearGradient id="paint0_linear_896_227" x1="7.64519" y1="1.58509" x2="52.6046" y2="37.2739" gradientUnits="userSpaceOnUse">
<stop stop-color="#9013FE"/>
<stop offset="1" stop-color="#6610F2"/>
</linearGradient>
<linearGradient id="paint1_linear_896_227" x1="19.4455" y1="11.5278" x2="29.4952" y2="28.5239" gradientUnits="userSpaceOnUse">
<stop stop-color="white"/>
<stop offset="1" stop-color="#F1E5FC"/>
</linearGradient>
<clipPath id="clip0_896_227">
<rect width="51.451" height="41" fill="white" transform="translate(0 0.5)"/>
</clipPath>
<clipPath id="clip1_896_227">
<rect width="81.5109" height="16.4" fill="white" transform="translate(59.45 12.8)"/>
</clipPath>
</defs>
</svg>
