<svg width="60" height="60" viewBox="0 0 60 60" fill="none" xmlns="http://www.w3.org/2000/svg">
<g clip-path="url(#clip0_896_202)">
<path d="M29.974 59.8485L12.6585 55.0415L8.79968 11.7617H51.2002L47.3375 55.0349L29.974 59.8485Z" fill="#264DE4"/>
<path d="M44.0305 52.2792L47.3314 15.3003H30V56.1689L44.0305 52.2792Z" fill="#2965F1"/>
<path d="M17.6458 31.3523L18.1215 36.6604H30V31.3523H17.6458ZM16.6898 20.6086L17.1723 25.9167H30V20.6086H16.6898ZM30 45.138L29.9767 45.1442L24.0652 43.5479L23.6872 39.3145H18.3587L19.1023 47.649L29.9756 50.6673L30 50.6607V45.138Z" fill="#EBEBEB"/>
<path d="M18.7786 0H25.2074V2.68853H21.4671V5.37706H25.2077V8.06543H18.7786V0ZM26.4933 0H32.9223V2.33784H29.1818V2.80537H32.9223V8.18244H26.4935V5.72742H30.2339V5.25989H26.4931L26.4933 0ZM34.2082 0H40.6372V2.33784H36.8967V2.80537H40.6372V8.18244H34.2082V5.72742H37.9486V5.25989H34.2084V0H34.2082Z" fill="#111827"/>
<path d="M42.3203 31.3523L43.2785 20.6086H29.9817V25.9167H37.4613L36.9783 31.3523H29.9817V36.6604H36.5181L35.9018 43.5446L29.9816 45.1425V50.6648L40.8635 47.649L40.9433 46.7522L42.1908 32.7777L42.3203 31.3523Z" fill="white"/>
</g>
<defs>
<clipPath id="clip0_896_202">
<rect width="60" height="60" fill="white"/>
</clipPath>
</defs>
</svg>
