<svg width="103" height="50" viewBox="0 0 103 50" fill="none" xmlns="http://www.w3.org/2000/svg">
<g clip-path="url(#clip0_896_241)">
<path d="M8.71383 50C13.3138 50 17.0472 46.2667 17.0472 41.6667V33.3334H8.71383C4.11383 33.3334 0.380493 37.0667 0.380493 41.6667C0.380493 46.2667 4.11383 50 8.71383 50Z" fill="#0ACF83"/>
<path d="M0.380493 25C0.380493 20.4 4.11383 16.6666 8.71383 16.6666H17.0472V33.3333H8.71383C4.11383 33.3333 0.380493 29.6 0.380493 25Z" fill="#A259FF"/>
<path d="M0.380493 8.33333C0.380493 3.73333 4.11383 0 8.71383 0H17.0472V16.6667H8.71383C4.11383 16.6667 0.380493 12.9333 0.380493 8.33333Z" fill="#F24E1E"/>
<path d="M17.0472 0H25.3806C29.9806 0 33.7139 3.73333 33.7139 8.33333C33.7139 12.9333 29.9806 16.6667 25.3806 16.6667H17.0472V0Z" fill="#FF7262"/>
<path d="M33.7139 25C33.7139 29.6 29.9806 33.3333 25.3806 33.3333C20.7806 33.3333 17.0472 29.6 17.0472 25C17.0472 20.4 20.7806 16.6666 25.3806 16.6666C29.9806 16.6666 33.7139 20.4 33.7139 25Z" fill="#1ABCFE"/>
</g>
<path d="M96.6983 32.2415C96.007 32.2415 95.382 32.1136 94.8233 31.8579C94.2646 31.5975 93.8219 31.2211 93.4952 30.7287C93.1732 30.2363 93.0122 29.6326 93.0122 28.9176C93.0122 28.3021 93.1306 27.7954 93.3673 27.3977C93.6041 27 93.9237 26.6851 94.3261 26.4531C94.7286 26.2211 95.1784 26.0459 95.6756 25.9275C96.1727 25.8092 96.6793 25.7192 97.1954 25.6577C97.8489 25.5819 98.3792 25.5203 98.7864 25.473C99.1936 25.4209 99.4895 25.3381 99.6741 25.2244C99.8588 25.1108 99.9511 24.9261 99.9511 24.6704V24.6207C99.9511 24.0005 99.7759 23.5199 99.4256 23.179C99.0799 22.8381 98.5638 22.6676 97.8773 22.6676C97.1623 22.6676 96.5989 22.8262 96.1869 23.1435C95.7797 23.456 95.498 23.804 95.3418 24.1875L93.346 23.7329C93.5828 23.0701 93.9284 22.535 94.3829 22.1278C94.8422 21.7159 95.3702 21.4176 95.9668 21.2329C96.5633 21.0435 97.1907 20.9489 97.8489 20.9489C98.2845 20.9489 98.7461 21.0009 99.2338 21.1051C99.7262 21.2045 100.186 21.3892 100.612 21.6591C101.043 21.929 101.395 22.3149 101.67 22.8167C101.944 23.3139 102.082 23.9602 102.082 24.7557V32H100.008V30.5085H99.9227C99.7854 30.7831 99.5794 31.053 99.3048 31.3182C99.0302 31.5833 98.6775 31.8035 98.2466 31.9787C97.8157 32.1539 97.2996 32.2415 96.6983 32.2415ZM97.1599 30.5369C97.7471 30.5369 98.2489 30.4209 98.6656 30.1889C99.087 29.9569 99.4066 29.6539 99.6244 29.2798C99.847 28.901 99.9582 28.4962 99.9582 28.0653V26.6591C99.8825 26.7348 99.7357 26.8059 99.5179 26.8721C99.3048 26.9337 99.061 26.9882 98.7864 27.0355C98.5117 27.0781 98.2442 27.1184 97.9838 27.1562C97.7234 27.1894 97.5056 27.2178 97.3304 27.2415C96.9185 27.2935 96.542 27.3811 96.2011 27.5042C95.865 27.6274 95.5951 27.8049 95.3915 28.0369C95.1926 28.2642 95.0932 28.5672 95.0932 28.946C95.0932 29.4716 95.2873 29.8693 95.6756 30.1392C96.0638 30.4043 96.5586 30.5369 97.1599 30.5369Z" fill="#2F2707"/>
<path d="M75.8477 32V21.0909H77.886V22.8665H78.021C78.2482 22.2651 78.6199 21.7964 79.136 21.4602C79.6521 21.1193 80.27 20.9489 80.9897 20.9489C81.7189 20.9489 82.3297 21.1193 82.8221 21.4602C83.3192 21.8011 83.6862 22.2699 83.9229 22.8665H84.0366C84.297 22.2841 84.7113 21.8201 85.2795 21.4744C85.8477 21.124 86.5247 20.9489 87.3107 20.9489C88.3003 20.9489 89.1076 21.259 89.7326 21.8792C90.3623 22.4995 90.6772 23.4346 90.6772 24.6846V32H88.5536V24.8835C88.5536 24.1449 88.3524 23.6098 87.9499 23.2784C87.5475 22.947 87.0669 22.7812 86.5082 22.7812C85.8169 22.7812 85.2795 22.9943 84.896 23.4204C84.5124 23.8418 84.3207 24.384 84.3207 25.0469V32H82.2042V24.7486C82.2042 24.1567 82.0195 23.6809 81.6502 23.321C81.2809 22.9612 80.8003 22.7812 80.2085 22.7812C79.806 22.7812 79.4343 22.8878 79.0934 23.1008C78.7572 23.3092 78.485 23.6004 78.2766 23.9744C78.073 24.3485 77.9712 24.7817 77.9712 25.2741V32H75.8477Z" fill="#2F2707"/>
<path d="M68.0778 36.3182C67.2113 36.3182 66.4656 36.2045 65.8406 35.9773C65.2203 35.75 64.7137 35.4493 64.3207 35.0753C63.9277 34.7012 63.6341 34.2917 63.44 33.8466L65.2653 33.0937C65.3931 33.3021 65.5636 33.5222 65.7767 33.7542C65.9945 33.991 66.288 34.1922 66.6573 34.3579C67.0314 34.5237 67.512 34.6065 68.0991 34.6065C68.904 34.6065 69.5693 34.41 70.0948 34.017C70.6204 33.6288 70.8832 33.0085 70.8832 32.1562V30.0114H70.7482C70.6204 30.2434 70.4357 30.5014 70.1943 30.7855C69.9575 31.0696 69.6308 31.3158 69.2142 31.5241C68.7975 31.7325 68.2554 31.8366 67.5877 31.8366C66.726 31.8366 65.9495 31.6354 65.2582 31.2329C64.5716 30.8257 64.0271 30.2268 63.6247 29.4361C63.2269 28.6406 63.0281 27.6629 63.0281 26.5028C63.0281 25.3428 63.2246 24.3485 63.6176 23.5199C64.0153 22.6913 64.5598 22.0568 65.2511 21.6165C65.9424 21.1714 66.726 20.9489 67.6019 20.9489C68.279 20.9489 68.8259 21.0625 69.2426 21.2898C69.6592 21.5123 69.9836 21.7727 70.2156 22.071C70.4523 22.3693 70.6346 22.6321 70.7625 22.8594H70.9187V21.0909H72.9997V32.2415C72.9997 33.179 72.7819 33.9484 72.3463 34.5497C71.9107 35.151 71.3212 35.5961 70.5778 35.8849C69.8392 36.1738 69.0058 36.3182 68.0778 36.3182ZM68.0565 30.0753C68.6673 30.0753 69.1834 29.9332 69.6048 29.6491C70.0309 29.3603 70.3529 28.9484 70.5707 28.4133C70.7932 27.8736 70.9045 27.2273 70.9045 26.4744C70.9045 25.7405 70.7956 25.0942 70.5778 24.5355C70.36 23.9768 70.0404 23.5412 69.619 23.2287C69.1976 22.9114 68.6768 22.7528 68.0565 22.7528C67.4173 22.7528 66.8846 22.9185 66.4585 23.25C66.0323 23.5767 65.7104 24.0218 65.4926 24.5852C65.2795 25.1487 65.173 25.7784 65.173 26.4744C65.173 27.1894 65.2819 27.8168 65.4997 28.3565C65.7175 28.8963 66.0394 29.3177 66.4656 29.6207C66.8964 29.9238 67.4268 30.0753 68.0565 30.0753Z" fill="#2F2707"/>
<path d="M58.5235 32V21.0909H60.6471V32H58.5235ZM59.596 19.4077C59.2267 19.4077 58.9094 19.2846 58.6443 19.0384C58.3839 18.7874 58.2537 18.4891 58.2537 18.1435C58.2537 17.7931 58.3839 17.4948 58.6443 17.2486C58.9094 16.9977 59.2267 16.8722 59.596 16.8722C59.9653 16.8722 60.2802 16.9977 60.5406 17.2486C60.8057 17.4948 60.9383 17.7931 60.9383 18.1435C60.9383 18.4891 60.8057 18.7874 60.5406 19.0384C60.2802 19.2846 59.9653 19.4077 59.596 19.4077Z" fill="#2F2707"/>
<path d="M46.9752 32V17.4546H55.9951V19.3438H49.1698V23.7756H55.3488V25.6577H49.1698V32H46.9752Z" fill="#2F2707"/>
<defs>
<clipPath id="clip0_896_241">
<rect width="33.34" height="50" fill="white" transform="translate(0.377197)"/>
</clipPath>
</defs>
</svg>
