<svg width="95" height="40" viewBox="0 0 95 40" fill="none" xmlns="http://www.w3.org/2000/svg">
<g clip-path="url(#clip0_896_234)">
<path d="M56.7712 13.7828C54.6943 13.7828 53.1474 14.8007 53.1474 17.2503C53.1474 19.0959 54.1668 20.3774 56.6593 20.3774C58.7719 20.3774 60.2069 19.1349 60.2069 17.1741C60.2069 14.9518 58.9228 13.7828 56.7712 13.7828ZM52.6186 31.0798C52.1271 31.6816 51.6373 32.3215 51.6373 33.0761C51.6373 34.5824 53.5616 35.0356 56.2051 35.0356C58.3949 35.0356 61.3777 34.8824 61.3777 32.8506C61.3777 31.6427 59.9427 31.5682 58.1294 31.4548L52.6186 31.0798ZM63.7934 13.8967C64.4719 14.7635 65.1902 15.9696 65.1902 17.7027C65.1902 21.885 61.9056 24.3337 57.1499 24.3337C55.9405 24.3337 54.8457 24.1835 54.1668 23.9951L52.9205 25.9919L56.6199 26.2174C63.1519 26.6331 67.0013 26.8218 67.0013 31.831C67.0013 36.1652 63.1892 38.6131 56.6199 38.6131C49.7868 38.6131 47.1819 36.88 47.1819 33.9035C47.1819 32.2077 47.9371 31.3054 49.2584 30.0598C48.0122 29.5342 47.5975 28.5926 47.5975 27.5747C47.5975 26.7452 48.0122 25.9919 48.6928 25.2753C49.3721 24.5606 50.1269 23.8436 51.0331 23.0149C49.1834 22.1105 47.7862 20.151 47.7862 17.3624C47.7862 13.0299 50.6557 10.0543 56.4307 10.0543C58.0544 10.0543 59.0365 10.2033 59.9049 10.431H67.2672V13.6326L63.7934 13.8967Z" fill="#2F2707"/>
<path d="M73.9091 7.04965C71.7567 7.04965 70.5112 5.80537 70.5112 3.65666C70.5112 1.51099 71.7567 0.342041 73.9091 0.342041C76.0989 0.342041 77.3447 1.51099 77.3447 3.65666C77.3447 5.80537 76.0989 7.04965 73.9091 7.04965ZM69.0381 29.6931V26.7179L70.9641 26.4551C71.4929 26.3789 71.568 26.2663 71.568 25.7V14.6223C71.568 14.2088 71.4552 13.9439 71.0765 13.8317L69.0381 13.1152L69.4532 10.0642H77.2688V25.7C77.2688 26.304 77.3053 26.3789 77.8731 26.4551L79.7987 26.7179V29.6931H69.0381Z" fill="#2F2707"/>
<path d="M94.7279 28.2323C93.1038 29.0229 90.7257 29.7389 88.5728 29.7389C84.0805 29.7389 82.3822 27.9323 82.3822 23.6725V13.801C82.3822 13.5754 82.3822 13.4243 82.079 13.4243H79.4368V10.0707C82.76 9.69319 84.0805 8.03501 84.4956 3.9281H88.0826V9.28016C88.0826 9.54296 88.0826 9.65682 88.385 9.65682H93.7076V13.4243H88.0826V22.4291C88.0826 24.6523 88.6119 25.5182 90.6494 25.5182C91.7078 25.5182 92.8014 25.2549 93.7076 24.9159L94.7279 28.2323Z" fill="#2F2707"/>
<path d="M38.7898 18.3443L21.528 1.1174C20.5346 0.125092 18.9222 0.125092 17.9276 1.1174L14.3432 4.69482L18.8901 9.23294C19.9469 8.87663 21.1584 9.11561 22.0008 9.95639C22.8472 10.8024 23.0849 12.022 22.7192 13.0801L27.1014 17.4537C28.1615 17.0892 29.3848 17.3251 30.2316 18.1715C31.415 19.3522 31.415 21.2658 30.2316 22.4473C29.0478 23.6288 27.1304 23.6288 25.9462 22.4473C25.056 21.558 24.8361 20.2531 25.2868 19.1586L21.2001 15.0799L21.1996 25.8134C21.4881 25.9563 21.7605 26.1463 22.0008 26.3853C23.1842 27.566 23.1842 29.4796 22.0008 30.662C20.817 31.843 18.8988 31.843 17.7167 30.662C16.5334 29.4796 16.5334 27.566 17.7167 26.3853C18.0091 26.094 18.3475 25.8736 18.7084 25.7255V14.892C18.3475 14.7448 18.0095 14.5257 17.7167 14.2322C16.8201 13.3386 16.6045 12.0254 17.0639 10.9266L12.582 6.45257L0.74601 18.2646C-0.24867 19.2578 -0.24867 20.867 0.74601 21.8593L18.0078 39.0866C19.0016 40.0789 20.6136 40.0789 21.6087 39.0866L38.7898 21.9394C39.7841 20.9467 39.7841 19.3366 38.7898 18.3443Z" fill="#DE4C36"/>
</g>
<defs>
<clipPath id="clip0_896_234">
<rect width="95" height="40" fill="white"/>
</clipPath>
</defs>
</svg>
