<svg width="32" height="32" viewBox="0 0 32 32" fill="none" xmlns="http://www.w3.org/2000/svg">
<rect width="32" height="32" rx="16" fill="#111827"/>
<path fill-rule="evenodd" clip-rule="evenodd" d="M16.0066 8C11.5792 8 8 11.6667 8 16.2028C8 19.8288 10.2933 22.8981 13.4747 23.9844C13.8725 24.0661 14.0182 23.8079 14.0182 23.5908C14.0182 23.4006 14.005 22.7488 14.005 22.0696C11.7778 22.5586 11.314 21.0918 11.314 21.0918C10.9561 20.1411 10.4257 19.8968 10.4257 19.8968C9.69674 19.3943 10.4788 19.3943 10.4788 19.3943C11.2874 19.4486 11.7118 20.2363 11.7118 20.2363C12.4275 21.4856 13.5807 21.1326 14.0447 20.9153C14.1109 20.3856 14.3232 20.0189 14.5485 19.8153C12.7721 19.6251 10.9031 18.919 10.9031 15.7681C10.9031 14.8718 11.2211 14.1385 11.7249 13.5681C11.6454 13.3645 11.3669 12.5223 11.8045 11.3952C11.8045 11.3952 12.4806 11.1778 14.0049 12.2371C14.6575 12.0576 15.3305 11.9663 16.0066 11.9655C16.6827 11.9655 17.3718 12.0606 18.0082 12.2371C19.5327 11.1778 20.2087 11.3952 20.2087 11.3952C20.6463 12.5223 20.3677 13.3645 20.2882 13.5681C20.8053 14.1385 21.1101 14.8718 21.1101 15.7681C21.1101 18.919 19.2411 19.6115 17.4515 19.8153C17.7432 20.0733 17.9949 20.5621 17.9949 21.3363C17.9949 22.4363 17.9818 23.3191 17.9818 23.5906C17.9818 23.8079 18.1277 24.0661 18.5253 23.9846C21.7067 22.8979 24 19.8288 24 16.2028C24.0131 11.6667 20.4208 8 16.0066 8Z" fill="white"/>
</svg>
