<svg width="48" height="48" viewBox="0 0 48 48" fill="none" xmlns="http://www.w3.org/2000/svg">
<rect width="48" height="48" rx="24" fill="white"/>
<path fill-rule="evenodd" clip-rule="evenodd" d="M24.0099 12C17.3687 12 12 17.5 12 24.3042C12 29.7432 15.4399 34.3472 20.2121 35.9767C20.8087 36.0991 21.0272 35.7119 21.0272 35.3862C21.0272 35.1009 21.0076 34.1232 21.0076 33.1044C17.6667 33.8379 16.971 31.6377 16.971 31.6377C16.4341 30.2117 15.6386 29.8452 15.6386 29.8452C14.5451 29.0914 15.7182 29.0914 15.7182 29.0914C16.9312 29.1729 17.5676 30.3544 17.5676 30.3544C18.6412 32.2284 20.3711 31.6989 21.0671 31.3729C21.1664 30.5784 21.4847 30.0284 21.8228 29.7229C19.1582 29.4377 16.3547 28.3784 16.3547 23.6522C16.3547 22.3077 16.8316 21.2077 17.5873 20.3522C17.4681 20.0467 17.0504 18.7835 17.7068 17.0927C17.7068 17.0927 18.7208 16.7667 21.0073 18.3557C21.9863 18.0864 22.9958 17.9494 24.0099 17.9482C25.024 17.9482 26.0577 18.091 27.0123 18.3557C29.299 16.7667 30.3131 17.0927 30.3131 17.0927C30.9695 18.7835 30.5515 20.0467 30.4323 20.3522C31.2079 21.2077 31.6652 22.3077 31.6652 23.6522C31.6652 28.3784 28.8617 29.4172 26.1772 29.7229C26.6148 30.1099 26.9924 30.8432 26.9924 32.0044C26.9924 33.6544 26.9727 34.9787 26.9727 35.3859C26.9727 35.7119 27.1915 36.0991 27.7879 35.9769C32.56 34.3469 35.9999 29.7432 35.9999 24.3042C36.0196 17.5 30.6312 12 24.0099 12Z" fill="#111827"/>
</svg>
