<svg width="60" height="60" viewBox="0 0 60 60" fill="none" xmlns="http://www.w3.org/2000/svg">
<path d="M51.2002 11.7617L47.3375 55.0349L29.974 59.8485L12.6585 55.0415L8.79968 11.7617H51.2002Z" fill="#E44D26"/>
<path d="M30 56.1689L44.0305 52.2792L47.3314 15.3003H30V56.1689Z" fill="#F16529"/>
<path d="M22.4909 25.9167H30V20.6086H16.6898L16.8168 22.0327L18.1215 36.6604H30V31.3523H22.976L22.4909 25.9167ZM23.6872 39.3145H18.3587L19.1023 47.649L29.9756 50.6673L30 50.6607V45.138L29.9767 45.1442L24.0652 43.5479L23.6872 39.3145Z" fill="#EBEBEB"/>
<path d="M12.7446 0H15.4421V2.6651H17.9098V0H20.6075V8.07058H17.9099V5.36809H15.4423V8.07058H12.7448L12.7446 0ZM24.1546 2.6764H21.7802V0H29.2285V2.6764H26.8526V8.07058H24.1551V2.6764H24.1546ZM30.4106 0H33.2232L34.9534 2.83579L36.682 0H39.4958V8.07058H36.8093V4.07036L34.9534 6.93989H34.9069L33.0499 4.07036V8.07058H30.4106V0ZM40.8383 0H43.5366V5.40299H47.3301V8.07058H40.8381V0H40.8383Z" fill="#111827"/>
<path d="M29.9817 36.6604H36.5181L35.9018 43.5446L29.9816 45.1425V50.6648L40.8635 47.649L40.9433 46.7522L42.1908 32.7777L42.3203 31.3523H29.9817V36.6604ZM29.9817 25.9038V25.9167H42.8033L42.9097 24.7237L43.1517 22.0327L43.2785 20.6086H29.9817V25.9038Z" fill="white"/>
</svg>
