<svg width="163" height="50" viewBox="0 0 163 50" fill="none" xmlns="http://www.w3.org/2000/svg">
<g clip-path="url(#clip0_896_210)">
<path d="M0 0H50V50H0V0Z" fill="#F7DF1E"/>
<path d="M13.1468 41.7836L16.9732 39.468C17.7113 40.7768 18.3828 41.8842 19.9936 41.8842C21.5375 41.8842 22.5109 41.2802 22.5109 38.931V22.9548H27.2097V38.9975C27.2097 43.8641 24.357 46.0793 20.195 46.0793C16.4362 46.0793 14.2543 44.1325 13.1467 41.7832" fill="#111827"/>
<path d="M29.762 41.2801L33.5878 39.065C34.595 40.7097 35.9039 41.9179 38.2197 41.9179C40.1666 41.9179 41.4081 40.9445 41.4081 39.602C41.4081 37.9909 40.1328 37.4203 37.9847 36.4808L36.8103 35.977C33.4202 34.5341 31.1714 32.7217 31.1714 28.8954C31.1714 25.3713 33.8564 22.6862 38.052 22.6862C41.0391 22.6862 43.1871 23.7267 44.7309 26.4454L41.0724 28.7946C40.2669 27.3516 39.3945 26.7811 38.052 26.7811C36.6759 26.7811 35.8032 27.6537 35.8032 28.7946C35.8032 30.2043 36.6759 30.775 38.6895 31.6477L39.8641 32.1512C43.8582 33.863 46.107 35.6081 46.107 39.5348C46.107 43.764 42.7843 46.0796 38.3205 46.0796C33.9573 46.0796 31.1378 43.9989 29.762 41.2801Z" fill="#111827"/>
<path d="M162.172 19.2187V20.9233H156.213V19.2187H162.172ZM157.811 16.6051H159.935V26.9247C159.935 27.3366 159.997 27.6468 160.12 27.8551C160.243 28.0587 160.401 28.1984 160.595 28.2741C160.794 28.3452 161.01 28.3807 161.242 28.3807C161.412 28.3807 161.561 28.3688 161.689 28.3452C161.817 28.3215 161.917 28.3025 161.988 28.2883L162.371 30.0426C162.248 30.09 162.073 30.1373 161.845 30.1846C161.618 30.2367 161.334 30.2651 160.993 30.2699C160.434 30.2793 159.914 30.1799 159.431 29.9716C158.948 29.7632 158.557 29.4413 158.259 29.0057C157.961 28.5701 157.811 28.0232 157.811 27.365V16.6051Z" fill="#2F2707"/>
<path d="M144.736 34.2187V19.2187H146.81V20.9872H146.988C147.111 20.7599 147.288 20.4971 147.52 20.1988C147.752 19.9005 148.074 19.6401 148.486 19.4176C148.898 19.1903 149.443 19.0767 150.12 19.0767C151 19.0767 151.786 19.2992 152.478 19.7443C153.169 20.1893 153.711 20.8309 154.104 21.669C154.502 22.5071 154.701 23.5156 154.701 24.6946C154.701 25.8735 154.504 26.8844 154.111 27.7272C153.718 28.5653 153.178 29.2116 152.492 29.6661C151.805 30.116 151.022 30.3409 150.141 30.3409C149.478 30.3409 148.936 30.2296 148.514 30.0071C148.098 29.7845 147.771 29.5241 147.534 29.2258C147.298 28.9275 147.115 28.6624 146.988 28.4304H146.86V34.2187H144.736ZM146.817 24.6733C146.817 25.4403 146.928 26.1126 147.151 26.6903C147.373 27.2679 147.695 27.7201 148.117 28.0468C148.538 28.3688 149.054 28.5298 149.665 28.5298C150.3 28.5298 150.83 28.3617 151.256 28.0255C151.682 27.6846 152.004 27.223 152.222 26.6406C152.444 26.0582 152.556 25.4024 152.556 24.6733C152.556 23.9536 152.447 23.3072 152.229 22.7343C152.016 22.1614 151.694 21.7092 151.263 21.3778C150.837 21.0464 150.304 20.8806 149.665 20.8806C149.05 20.8806 148.529 21.0393 148.103 21.3565C147.681 21.6737 147.362 22.1164 147.144 22.6846C146.926 23.2528 146.817 23.9157 146.817 24.6733Z" fill="#2F2707"/>
<path d="M139.756 30.1278V19.2188H141.879V30.1278H139.756ZM140.828 17.5355C140.459 17.5355 140.142 17.4124 139.876 17.1662C139.616 16.9152 139.486 16.617 139.486 16.2713C139.486 15.9209 139.616 15.6226 139.876 15.3764C140.142 15.1255 140.459 15 140.828 15C141.197 15 141.512 15.1255 141.773 15.3764C142.038 15.6226 142.171 15.9209 142.171 16.2713C142.171 16.617 142.038 16.9152 141.773 17.1662C141.512 17.4124 141.197 17.5355 140.828 17.5355Z" fill="#2F2707"/>
<path d="M132.08 30.1279V19.2188H134.132V20.9517H134.246C134.445 20.3646 134.795 19.903 135.297 19.5668C135.804 19.2259 136.377 19.0554 137.016 19.0554C137.148 19.0554 137.305 19.0602 137.485 19.0696C137.669 19.0791 137.814 19.0909 137.918 19.1051V21.1364C137.833 21.1127 137.681 21.0867 137.463 21.0583C137.246 21.0251 137.028 21.0085 136.81 21.0085C136.308 21.0085 135.861 21.1151 135.468 21.3281C135.079 21.5365 134.772 21.8277 134.544 22.2017C134.317 22.571 134.203 22.9924 134.203 23.4659V30.1279H132.08Z" fill="#2F2707"/>
<path d="M125.327 30.348C124.272 30.348 123.362 30.1089 122.6 29.6306C121.843 29.1477 121.26 28.4824 120.853 27.6349C120.446 26.7874 120.242 25.8167 120.242 24.723C120.242 23.615 120.451 22.6373 120.867 21.7897C121.284 20.9375 121.871 20.2722 122.629 19.794C123.386 19.3158 124.279 19.0767 125.306 19.0767C126.135 19.0767 126.873 19.2305 127.522 19.5383C128.171 19.8413 128.694 20.2675 129.092 20.8167C129.494 21.366 129.733 22.0075 129.809 22.7414H127.742C127.629 22.2301 127.368 21.7897 126.961 21.4204C126.558 21.0511 126.019 20.8664 125.342 20.8664C124.75 20.8664 124.231 21.0227 123.786 21.3352C123.346 21.6429 123.003 22.0833 122.756 22.6562C122.51 23.2244 122.387 23.8967 122.387 24.6733C122.387 25.4687 122.508 26.1553 122.749 26.7329C122.991 27.3106 123.332 27.758 123.772 28.0752C124.217 28.3925 124.74 28.5511 125.342 28.5511C125.744 28.5511 126.109 28.4777 126.435 28.3309C126.767 28.1794 127.044 27.964 127.266 27.6846C127.494 27.4053 127.652 27.0691 127.742 26.6761H129.809C129.733 27.3816 129.504 28.0113 129.12 28.5653C128.737 29.1193 128.223 29.5549 127.579 29.8721C126.94 30.1893 126.189 30.348 125.327 30.348Z" fill="#2F2707"/>
<path d="M115.965 19.4034C115.889 18.7311 115.577 18.2102 115.027 17.8409C114.478 17.4669 113.787 17.2799 112.953 17.2799C112.357 17.2799 111.841 17.3745 111.405 17.5639C110.97 17.7486 110.631 18.0043 110.39 18.331C110.153 18.653 110.034 19.0199 110.034 19.4318C110.034 19.7775 110.115 20.0758 110.276 20.3267C110.442 20.5777 110.657 20.7884 110.922 20.9588C111.192 21.1245 111.481 21.2642 111.789 21.3779C112.096 21.4868 112.392 21.5767 112.676 21.6477L114.097 22.0171C114.561 22.1307 115.037 22.2846 115.524 22.4787C116.012 22.6728 116.464 22.9285 116.881 23.2458C117.298 23.563 117.634 23.956 117.89 24.4247C118.15 24.8935 118.28 25.4546 118.28 26.108C118.28 26.9318 118.067 27.6634 117.641 28.3026C117.22 28.9418 116.606 29.446 115.801 29.8154C115.001 30.1847 114.033 30.3693 112.897 30.3693C111.808 30.3693 110.865 30.1965 110.07 29.8509C109.274 29.5052 108.652 29.0152 108.202 28.3807C107.752 27.7415 107.504 26.9839 107.456 26.108H109.658C109.701 26.6335 109.871 27.0715 110.169 27.4219C110.472 27.7675 110.858 28.0256 111.327 28.196C111.801 28.3618 112.319 28.4446 112.882 28.4446C113.503 28.4446 114.054 28.3476 114.537 28.1534C115.025 27.9546 115.408 27.6799 115.688 27.3296C115.967 26.9745 116.107 26.5602 116.107 26.0867C116.107 25.6558 115.984 25.3031 115.738 25.0284C115.496 24.7538 115.167 24.5265 114.75 24.3466C114.338 24.1667 113.872 24.0081 113.351 23.8708L111.632 23.402C110.468 23.0848 109.544 22.6184 108.863 22.0029C108.185 21.3873 107.847 20.5729 107.847 19.5597C107.847 18.7216 108.074 17.9901 108.529 17.3651C108.983 16.7401 109.599 16.2548 110.375 15.9091C111.152 15.5587 112.028 15.3835 113.003 15.3835C113.988 15.3835 114.857 15.5564 115.61 15.902C116.367 16.2477 116.964 16.7235 117.399 17.3296C117.835 17.9309 118.062 18.6222 118.081 19.4034H115.965Z" fill="#2F2707"/>
<path d="M99.6492 30.3693C98.9579 30.3693 98.3329 30.2414 97.7742 29.9858C97.2155 29.7253 96.7728 29.3489 96.4461 28.8565C96.1241 28.3641 95.9631 27.7604 95.9631 27.0454C95.9631 26.4299 96.0815 25.9233 96.3182 25.5255C96.555 25.1278 96.8746 24.8129 97.2771 24.5809C97.6795 24.3489 98.1293 24.1737 98.6265 24.0554C99.1236 23.937 99.6303 23.847 100.146 23.7855C100.8 23.7097 101.33 23.6482 101.737 23.6008C102.144 23.5487 102.44 23.4659 102.625 23.3522C102.81 23.2386 102.902 23.0539 102.902 22.7983V22.7485C102.902 22.1283 102.727 21.6477 102.376 21.3068C102.031 20.9659 101.515 20.7954 100.828 20.7954C100.113 20.7954 99.5498 20.954 99.1378 21.2713C98.7307 21.5838 98.4489 21.9318 98.2927 22.3153L96.2969 21.8608C96.5337 21.1979 96.8793 20.6628 97.3339 20.2556C97.7932 19.8437 98.3211 19.5454 98.9177 19.3608C99.5143 19.1714 100.142 19.0767 100.8 19.0767C101.235 19.0767 101.697 19.1287 102.185 19.2329C102.677 19.3323 103.136 19.517 103.563 19.7869C103.993 20.0568 104.346 20.4427 104.621 20.9446C104.895 21.4417 105.033 22.088 105.033 22.8835V30.1278H102.959V28.6363H102.874C102.736 28.9109 102.53 29.1808 102.256 29.446C101.981 29.7111 101.628 29.9313 101.198 30.1065C100.767 30.2817 100.251 30.3693 99.6492 30.3693ZM100.111 28.6647C100.698 28.6647 101.2 28.5487 101.617 28.3167C102.038 28.0847 102.358 27.7817 102.575 27.4076C102.798 27.0288 102.909 26.624 102.909 26.1931V24.7869C102.833 24.8626 102.687 24.9337 102.469 25C102.256 25.0615 102.012 25.116 101.737 25.1633C101.463 25.2059 101.195 25.2462 100.935 25.284C100.674 25.3172 100.457 25.3456 100.281 25.3693C99.8694 25.4214 99.493 25.509 99.1521 25.6321C98.8159 25.7552 98.546 25.9327 98.3424 26.1647C98.1435 26.392 98.0441 26.695 98.0441 27.0738C98.0441 27.5994 98.2382 27.9971 98.6265 28.267C99.0147 28.5322 99.5095 28.6647 100.111 28.6647Z" fill="#2F2707"/>
<path d="M94.7911 19.2188L90.8352 30.1278H88.5624L84.5994 19.2188H86.8792L89.642 27.6136H89.7556L92.5113 19.2188H94.7911Z" fill="#2F2707"/>
<path d="M77.6375 30.3693C76.9462 30.3693 76.3212 30.2414 75.7625 29.9858C75.2038 29.7253 74.7611 29.3489 74.4344 28.8565C74.1124 28.3641 73.9514 27.7604 73.9514 27.0454C73.9514 26.4299 74.0698 25.9233 74.3065 25.5255C74.5433 25.1278 74.8629 24.8129 75.2653 24.5809C75.6678 24.3489 76.1176 24.1737 76.6148 24.0554C77.1119 23.937 77.6186 23.847 78.1347 23.7855C78.7881 23.7097 79.3184 23.6482 79.7256 23.6008C80.1328 23.5487 80.4287 23.4659 80.6133 23.3522C80.798 23.2386 80.8903 23.0539 80.8903 22.7983V22.7485C80.8903 22.1283 80.7151 21.6477 80.3648 21.3068C80.0191 20.9659 79.503 20.7954 78.8165 20.7954C78.1015 20.7954 77.5381 20.954 77.1261 21.2713C76.7189 21.5838 76.4372 21.9318 76.281 22.3153L74.2852 21.8608C74.522 21.1979 74.8676 20.6628 75.3222 20.2556C75.7814 19.8437 76.3094 19.5454 76.906 19.3608C77.5026 19.1714 78.1299 19.0767 78.7881 19.0767C79.2237 19.0767 79.6853 19.1287 80.173 19.2329C80.6654 19.3323 81.1247 19.517 81.5508 19.7869C81.9817 20.0568 82.3345 20.4427 82.6091 20.9446C82.8837 21.4417 83.021 22.088 83.021 22.8835V30.1278H80.9472V28.6363H80.8619C80.7246 28.9109 80.5187 29.1808 80.244 29.446C79.9694 29.7111 79.6167 29.9313 79.1858 30.1065C78.7549 30.2817 78.2388 30.3693 77.6375 30.3693ZM78.0991 28.6647C78.6863 28.6647 79.1882 28.5487 79.6048 28.3167C80.0262 28.0847 80.3458 27.7817 80.5636 27.4076C80.7862 27.0288 80.8974 26.624 80.8974 26.1931V24.7869C80.8217 24.8626 80.6749 24.9337 80.4571 25C80.244 25.0615 80.0002 25.116 79.7256 25.1633C79.4509 25.2059 79.1834 25.2462 78.923 25.284C78.6626 25.3172 78.4448 25.3456 78.2696 25.3693C77.8577 25.4214 77.4812 25.509 77.1403 25.6321C76.8042 25.7552 76.5343 25.9327 76.3307 26.1647C76.1318 26.392 76.0324 26.695 76.0324 27.0738C76.0324 27.5994 76.2265 27.9971 76.6148 28.267C77.003 28.5322 77.4978 28.6647 78.0991 28.6647Z" fill="#2F2707"/>
<path d="M69.2514 15.5824H71.4389V25.8949C71.4389 26.8277 71.2543 27.6255 70.8849 28.2884C70.5204 28.9512 70.0066 29.4579 69.3438 29.8082C68.6809 30.1539 67.9044 30.3267 67.0142 30.3267C66.1951 30.3267 65.4588 30.1776 64.8054 29.8793C64.1567 29.581 63.643 29.1477 63.2642 28.5796C62.8902 28.0066 62.7031 27.3106 62.7031 26.4915H64.8835C64.8835 26.894 64.9759 27.242 65.1605 27.5355C65.3499 27.8291 65.608 28.0587 65.9347 28.2244C66.2661 28.3854 66.6449 28.4659 67.071 28.4659C67.535 28.4659 67.928 28.3689 68.25 28.1747C68.5767 27.9759 68.8253 27.6847 68.9957 27.3011C69.1662 26.9176 69.2514 26.4489 69.2514 25.8949V15.5824Z" fill="#2F2707"/>
</g>
<defs>
<clipPath id="clip0_896_210">
<rect width="163" height="50" fill="white"/>
</clipPath>
</defs>
</svg>
