<svg width="48" height="48" viewBox="0 0 48 48" fill="none" xmlns="http://www.w3.org/2000/svg">
<rect width="48" height="48" rx="24" fill="white"/>
<path d="M36 13.7647V34.2353C36 34.7033 35.8141 35.1522 35.4831 35.4831C35.1522 35.8141 34.7033 36 34.2353 36H13.7647C13.2967 36 12.8478 35.8141 12.5169 35.4831C12.1859 35.1522 12 34.7033 12 34.2353V13.7647C12 13.2967 12.1859 12.8478 12.5169 12.5169C12.8478 12.1859 13.2967 12 13.7647 12H34.2353C34.7033 12 35.1522 12.1859 35.4831 12.5169C35.8141 12.8478 36 13.2967 36 13.7647ZM19.0588 21.1765H15.5294V32.4706H19.0588V21.1765ZM19.3765 17.2941C19.3783 17.0271 19.3276 16.7624 19.2271 16.5151C19.1267 16.2677 18.9785 16.0426 18.791 15.8525C18.6036 15.6624 18.3805 15.5111 18.1346 15.4072C17.8886 15.3033 17.6246 15.2489 17.3576 15.2471H17.2941C16.7512 15.2471 16.2305 15.4627 15.8466 15.8466C15.4627 16.2305 15.2471 16.7512 15.2471 17.2941C15.2471 17.837 15.4627 18.3577 15.8466 18.7416C16.2305 19.1255 16.7512 19.3412 17.2941 19.3412C17.5611 19.3477 17.8268 19.3016 18.0759 19.2055C18.3251 19.1094 18.5529 18.9651 18.7463 18.7809C18.9396 18.5967 19.0948 18.3762 19.203 18.132C19.3111 17.8878 19.3701 17.6246 19.3765 17.3576V17.2941ZM32.4706 25.6094C32.4706 22.2141 30.3106 20.8941 28.1647 20.8941C27.4621 20.8589 26.7626 21.0086 26.1358 21.3281C25.5091 21.6477 24.9771 22.126 24.5929 22.7153H24.4941V21.1765H21.1765V32.4706H24.7059V26.4635C24.6549 25.8483 24.8487 25.2378 25.2452 24.7646C25.6417 24.2915 26.2089 23.9939 26.8235 23.9365H26.9576C28.08 23.9365 28.9129 24.6424 28.9129 26.4212V32.4706H32.4424L32.4706 25.6094Z" fill="#111827"/>
</svg>
