<svg width="32" height="32" viewBox="0 0 32 32" fill="none" xmlns="http://www.w3.org/2000/svg">
<rect width="32" height="32" rx="16" fill="#111827"/>
<path d="M24 9.17647V22.8235C24 23.1355 23.8761 23.4348 23.6554 23.6554C23.4348 23.8761 23.1355 24 22.8235 24H9.17647C8.86445 24 8.56521 23.8761 8.34458 23.6554C8.12395 23.4348 8 23.1355 8 22.8235V9.17647C8 8.86445 8.12395 8.56521 8.34458 8.34458C8.56521 8.12395 8.86445 8 9.17647 8H22.8235C23.1355 8 23.4348 8.12395 23.6554 8.34458C23.8761 8.56521 24 8.86445 24 9.17647ZM12.7059 14.1176H10.3529V21.6471H12.7059V14.1176ZM12.9176 11.5294C12.9189 11.3514 12.8851 11.1749 12.8181 11.01C12.7511 10.8451 12.6523 10.695 12.5274 10.5683C12.4024 10.4416 12.2537 10.3407 12.0897 10.2715C11.9257 10.2022 11.7497 10.1659 11.5718 10.1647H11.5294C11.1675 10.1647 10.8204 10.3085 10.5644 10.5644C10.3085 10.8204 10.1647 11.1675 10.1647 11.5294C10.1647 11.8914 10.3085 12.2385 10.5644 12.4944C10.8204 12.7503 11.1675 12.8941 11.5294 12.8941C11.7074 12.8985 11.8845 12.8678 12.0506 12.8037C12.2167 12.7396 12.3686 12.6434 12.4975 12.5206C12.6264 12.3978 12.7299 12.2508 12.802 12.088C12.8741 11.9252 12.9134 11.7498 12.9176 11.5718V11.5294ZM21.6471 17.0729C21.6471 14.8094 20.2071 13.9294 18.7765 13.9294C18.3081 13.906 17.8417 14.0057 17.4239 14.2188C17.0061 14.4318 16.6514 14.7507 16.3953 15.1435H16.3294V14.1176H14.1176V21.6471H16.4706V17.6424C16.4366 17.2322 16.5658 16.8252 16.8301 16.5098C17.0944 16.1943 17.4726 15.9959 17.8824 15.9576H17.9718C18.72 15.9576 19.2753 16.4282 19.2753 17.6141V21.6471H21.6282L21.6471 17.0729Z" fill="white"/>
</svg>
