<svg width="275" height="125" viewBox="0 0 275 125" fill="none" xmlns="http://www.w3.org/2000/svg">
<g clip-path="url(#clip0_5169_744)">
<path d="M84.375 59.375L31.25 50V119.272C31.25 122.435 33.8146 125 36.9781 125H128.647C131.81 125 134.375 122.435 134.375 119.272V93.75L84.375 59.375Z" fill="#185C37"/>
<path d="M84.375 0H36.9781C33.8146 0 31.25 2.56455 31.25 5.72811V31.25L84.375 62.5L112.5 71.875L134.375 62.5V31.25L84.375 0Z" fill="#21A366"/>
<path d="M31.25 31.25H84.375V62.5H31.25V31.25Z" fill="#107C41"/>
<path opacity="0.1" d="M69.2719 25H31.25V103.125H69.2719C72.4312 103.115 74.9897 100.556 75 97.3969V30.7281C74.9897 27.5688 72.4312 25.0103 69.2719 25Z" fill="black"/>
<path opacity="0.2" d="M66.1469 28.125H31.25V106.25H66.1469C69.3062 106.24 71.8647 103.681 71.875 100.522V33.8531C71.8647 30.6938 69.3062 28.1353 66.1469 28.125Z" fill="black"/>
<path opacity="0.2" d="M66.1469 28.125H31.25V100H66.1469C69.3062 99.9897 71.8647 97.4312 71.875 94.2719V33.8531C71.8647 30.6938 69.3062 28.1353 66.1469 28.125Z" fill="black"/>
<path opacity="0.2" d="M63.0219 28.125H31.25V100H63.0219C66.1812 99.9897 68.7397 97.4312 68.75 94.2719V33.8531C68.7397 30.6938 66.1812 28.1353 63.0219 28.125Z" fill="black"/>
<path d="M5.72811 28.125H63.0218C66.1854 28.125 68.7499 30.6896 68.7499 33.8531V91.1468C68.7499 94.3104 66.1854 96.8749 63.0218 96.8749H5.72811C2.56455 96.875 0 94.3104 0 91.1469V33.8531C0 30.6896 2.56455 28.125 5.72811 28.125Z" fill="url(#paint0_linear_5169_744)"/>
<path d="M17.7407 81.1188L29.7907 62.4469L18.7501 43.8781H27.6313L33.6563 55.7531C34.2126 56.8812 34.5938 57.7187 34.8001 58.2718H34.8782C35.2741 57.3718 35.6907 56.4979 36.1282 55.6499L42.5688 43.8844H50.7219L39.4001 62.3438L51.0095 81.1187H42.3345L35.3751 68.0844C35.0473 67.5298 34.7691 66.9473 34.5439 66.3438H34.4408C34.2369 66.935 33.9664 67.5012 33.6345 68.0313L26.4689 81.1188H17.7407Z" fill="white"/>
<path d="M128.647 0H84.375V31.25H134.375V5.72811C134.375 2.56455 131.81 0 128.647 0Z" fill="#33C481"/>
<path d="M84.375 62.5H134.375V93.75H84.375V62.5Z" fill="#107C41"/>
<path d="M270.819 44.6364V81H266.628V44.6364H270.819Z" fill="#185C37"/>
<path d="M248.961 81.5682C246.334 81.5682 244.067 80.9882 242.161 79.8281C240.267 78.6563 238.805 77.0227 237.775 74.9276C236.757 72.8205 236.248 70.3703 236.248 67.5767C236.248 64.7831 236.757 62.321 237.775 60.1903C238.805 58.0478 240.237 56.3788 242.072 55.1832C243.919 53.9759 246.073 53.3722 248.535 53.3722C249.956 53.3722 251.358 53.6089 252.743 54.0824C254.128 54.5559 255.389 55.3253 256.525 56.3906C257.662 57.4441 258.567 58.8409 259.242 60.581C259.917 62.321 260.254 64.4635 260.254 67.0085V68.7841H239.231V65.1619H255.993C255.993 63.6231 255.685 62.25 255.069 61.0426C254.466 59.8352 253.602 58.8823 252.477 58.184C251.364 57.4856 250.05 57.1364 248.535 57.1364C246.866 57.1364 245.422 57.5507 244.203 58.3793C242.995 59.196 242.066 60.2614 241.415 61.5753C240.764 62.8892 240.439 64.2978 240.439 65.8011V68.2159C240.439 70.2756 240.794 72.0215 241.504 73.4538C242.226 74.8743 243.226 75.9574 244.505 76.7031C245.783 77.437 247.269 77.804 248.961 77.804C250.062 77.804 251.057 77.6501 251.944 77.3423C252.844 77.0227 253.619 76.5492 254.27 75.9219C254.921 75.2827 255.424 74.4896 255.78 73.5426L259.828 74.679C259.402 76.0521 258.686 77.2595 257.679 78.3011C256.673 79.331 255.43 80.1359 253.951 80.7159C252.471 81.2841 250.808 81.5682 248.961 81.5682Z" fill="#185C37"/>
<path d="M220.677 81.5682C218.12 81.5682 215.918 80.9645 214.071 79.7571C212.225 78.5497 210.804 76.8866 209.81 74.7678C208.816 72.6489 208.319 70.2282 208.319 67.5057C208.319 64.7358 208.828 62.2914 209.846 60.1726C210.875 58.0419 212.308 56.3788 214.142 55.1832C215.989 53.9759 218.143 53.3722 220.606 53.3722C222.523 53.3722 224.251 53.7273 225.79 54.4375C227.329 55.1477 228.59 56.142 229.572 57.4205C230.555 58.6989 231.164 60.1903 231.401 61.8949H227.211C226.891 60.652 226.181 59.5511 225.08 58.5923C223.991 57.6217 222.523 57.1364 220.677 57.1364C219.043 57.1364 217.611 57.5625 216.38 58.4148C215.16 59.2552 214.208 60.4448 213.521 61.9837C212.846 63.5107 212.509 65.304 212.509 67.3636C212.509 69.4706 212.84 71.3054 213.503 72.8679C214.178 74.4304 215.125 75.6437 216.344 76.5078C217.575 77.3719 219.019 77.804 220.677 77.804C221.766 77.804 222.754 77.6146 223.642 77.2358C224.53 76.857 225.281 76.3125 225.897 75.6023C226.512 74.892 226.95 74.0398 227.211 73.0455H231.401C231.164 74.6553 230.578 76.1054 229.643 77.3956C228.72 78.674 227.495 79.692 225.968 80.4496C224.453 81.1953 222.689 81.5682 220.677 81.5682Z" fill="#185C37"/>
<path d="M186.843 53.7273L193.377 64.8778L199.911 53.7273H204.741L195.934 67.3636L204.741 81H199.911L193.377 70.4176L186.843 81H182.013L190.678 67.3636L182.013 53.7273H186.843Z" fill="#185C37"/>
<path d="M154.403 81V44.6364H176.349V48.5426H158.807V60.8295H175.213V64.7358H158.807V77.0937H176.633V81H154.403Z" fill="#185C37"/>
</g>
<defs>
<linearGradient id="paint0_linear_5169_744" x1="11.9433" y1="23.6492" x2="56.8067" y2="101.351" gradientUnits="userSpaceOnUse">
<stop stop-color="#18884F"/>
<stop offset="0.5" stop-color="#117E43"/>
<stop offset="1" stop-color="#0B6631"/>
</linearGradient>
<clipPath id="clip0_5169_744">
<rect width="275" height="125" fill="white"/>
</clipPath>
</defs>
</svg>
