<svg width="163" height="40" viewBox="0 0 163 40" fill="none" xmlns="http://www.w3.org/2000/svg">
<path d="M57.9121 23.8565C55.8672 23.8565 53.7845 23.1795 52.4803 21.8526V29.0207H48.3845V11.3251H52.088L52.2294 13.2716C53.4997 11.7759 55.7557 10.9858 57.9081 10.9858C62.0357 10.9858 65.0762 13.7527 65.0762 17.4211C65.0762 21.0896 62.0397 23.858 57.9121 23.8565ZM56.6437 13.415C54.2444 13.415 52.3051 14.9107 52.3051 17.4227C52.3051 19.9347 54.2444 21.4336 56.6437 21.4336C59.0431 21.4336 60.9824 19.9379 60.9824 17.4259C60.9824 14.9139 59.0431 13.415 56.6437 13.415Z" fill="#130754"/>
<path d="M80.5133 23.5203L80.372 21.5738C79.1016 23.0695 76.8437 23.8596 74.6913 23.858C70.5637 23.858 67.5232 21.0927 67.5232 17.4243C67.5232 13.7558 70.5577 10.9889 74.6913 10.9905C76.8437 10.9905 79.1016 11.787 80.372 13.2764L80.5133 11.3298H84.2248V23.5203H80.5133ZM75.9636 13.4165C73.5643 13.4165 71.6249 14.9123 71.6229 17.4243C71.6209 19.9363 73.5623 21.4336 75.9616 21.4336C78.3609 21.4336 80.3023 19.9379 80.3023 17.4259C80.3023 14.9139 78.3629 13.4165 75.9636 13.4165Z" fill="#130754"/>
<path d="M98.5351 23.5219V16.7776C98.5351 14.4073 97.5137 13.6172 95.644 13.6172C93.7026 13.6172 91.5861 15.027 91.5861 16.7202V23.5219H87.4923V11.3298H91.2336L91.4109 13.5886C92.4343 12.0355 94.7261 10.9921 97.0557 10.9921C101.112 10.9921 102.631 13.2509 102.631 16.2694V23.5235L98.5351 23.5219Z" fill="#130754"/>
<path d="M117.63 23.5251L117.489 21.577C116.218 23.0727 113.96 23.8628 111.81 23.8628C107.682 23.8628 104.642 21.0959 104.642 17.4275C104.642 13.759 107.676 10.9937 111.81 10.9937C113.855 10.9937 115.936 11.6723 117.242 12.9976V6.59253H121.336V23.5251H117.63ZM113.08 13.4213C110.691 13.4213 108.742 14.9171 108.742 17.4275C108.742 19.9379 110.681 21.4336 113.08 21.4336C115.48 21.4336 117.419 19.9395 117.419 17.4275C117.419 14.9155 115.486 13.4213 113.08 13.4213Z" fill="#130754"/>
<path d="M136.711 23.5267L136.57 21.5802C135.299 23.0759 133.041 23.8644 130.889 23.8644C126.761 23.8644 123.721 21.0991 123.721 17.429C123.721 13.759 126.755 10.9953 130.889 10.9953C133.041 10.9953 135.299 11.7918 136.57 13.2827L136.711 11.3346H140.415V23.5251L136.711 23.5267ZM132.161 13.4229C129.772 13.4229 127.823 14.9186 127.821 17.4306C127.819 19.9426 129.762 21.4336 132.159 21.4336C134.557 21.4336 136.5 19.9379 136.5 17.4259C136.5 14.9138 134.561 13.4229 132.161 13.4229Z" fill="#130754"/>
<path d="M149.48 23.9234C147.327 23.9091 145.219 23.4309 143.377 22.5391L144.048 20.282C145.283 20.8745 147.153 21.6375 149.411 21.6375C151.033 21.6375 152.162 21.2425 152.162 20.2262C152.162 19.3517 150.998 19.0411 148.917 18.6461C145.177 17.9962 143.837 16.416 143.837 14.6941C143.837 12.7746 145.707 10.9698 149.835 10.9698C152.34 10.9698 154.528 11.8444 155.012 12.0705L154.341 14.2162C153.008 13.5743 151.488 13.2239 149.932 13.1999C148.276 13.1999 147.463 13.6507 147.463 14.385C147.463 15.2022 148.523 15.5702 150.143 15.8808C154.165 16.5578 155.788 18.0535 155.788 19.691C155.796 22.3145 153.397 23.9234 149.48 23.9234Z" fill="#130754"/>
<path d="M19.7062 3.02283H14.9095V10.9905H19.7062V3.02283Z" fill="#130754"/>
<path d="M19.7062 19.3899H14.9095V27.3576H19.7062V19.3899Z" fill="#130754"/>
<path d="M19.7062 13.3162H14.9095V17.0754H19.7062V13.3162Z" fill="#FFCA00"/>
<path d="M12.0026 9.57446H7.20593V36.0597H12.0026V9.57446Z" fill="#130754"/>
<path d="M27.2526 25.9639H22.4559V33.9316H27.2526V25.9639Z" fill="#130754"/>
<path d="M27.2526 9.58398H22.4559V17.5517H27.2526V9.58398Z" fill="#130754"/>
<path d="M27.2526 19.8773H22.4559V23.6366H27.2526V19.8773Z" fill="#E70488"/>
<path d="M34.797 0.947266H30.0004V27.4325H34.797V0.947266Z" fill="#130754"/>
</svg>
