<svg width="170" height="40" viewBox="0 0 170 40" fill="none" xmlns="http://www.w3.org/2000/svg">
<g clip-path="url(#clip0_896_273)">
<path d="M29.0631 0C29.0749 0.334785 28.9848 0.657824 28.9183 0.980862C28.7225 1.91865 28.4131 3.39876 28.0881 4.26215C28.0059 4.48143 27.6848 4.99241 27.4479 4.99241H23.6792C24.7462 5.99677 25.8269 6.98938 26.9076 7.98003C27.2561 8.29915 27.7553 8.63002 28.0862 8.95502C30.3964 11.2241 30.8486 14.7697 29.1042 17.5146L19.9104 30.8335L10.8144 17.6125C9.46937 15.6135 9.32058 12.992 10.3778 10.8286C11.251 9.04312 14.035 7.03245 15.5562 5.63066C15.7618 5.44075 15.983 5.22344 16.1416 4.99241H12.4707C12.4296 4.99241 12.134 4.77314 12.0341 4.74377C11.3919 3.25192 11.2177 1.56429 10.7576 0L29.0631 0ZM21.134 23.4937L21.3709 23.2901C22.8451 20.7469 25.0809 18.3251 26.5004 15.7917C27.0955 14.7266 27.2815 13.8143 26.8606 12.6298C26.377 11.275 23.9356 9.49537 22.7981 8.46948C21.8721 7.63546 20.9676 6.7701 20.0592 5.9165L19.9241 5.8793L14.3796 10.8149C12.8975 11.9603 12.3219 13.8104 13.1892 15.5333L18.7866 23.5916V17.865C18.7866 17.4206 17.839 16.4534 17.6785 15.8387C17.3848 14.7012 17.8703 13.5226 18.9569 13.0429C21.1223 12.0875 23.1408 14.4858 21.9034 16.4789C21.7703 16.6923 21.136 17.3638 21.136 17.5713V23.4937H21.134Z" fill="#2F2707"/>
<path d="M6.15653 37.492C5.21287 39.9608 1.54981 39.9001 0.598311 37.4215C-0.582248 34.3399 3.2394 31.8574 5.5594 34.1246C5.83545 34.3928 6.08801 35.0898 6.40126 35.1427L16.343 35.1015C16.5055 34.9939 16.4115 34.3948 16.4566 34.1383C16.5682 33.504 17.2377 33.0341 17.8486 32.9851C18.896 32.9029 20.7305 32.899 21.774 32.9851C22.4807 33.0439 23.1797 33.4746 23.2795 34.2205C23.3109 34.4555 23.213 34.988 23.3794 35.0996L33.419 35.1407C33.7147 35.0898 33.9946 34.4281 34.302 34.1637C36.5848 32.2079 40.0403 34.3517 39.2161 37.3158C38.944 38.2947 38.0042 39.211 36.9959 39.4028C35.3592 39.7161 34.118 38.9154 33.419 37.4901H23.2874C23.4224 38.7998 23.1464 39.8277 21.6761 39.9412C20.6854 40.0176 19.035 40.0176 18.0463 39.9412C16.5779 39.8277 16.298 38.8018 16.435 37.4901H6.15653V37.492Z" fill="#2F2707"/>
</g>
<path d="M169.424 16.3182V18.0228H163.465V16.3182H169.424ZM165.063 13.7046H167.187V24.0242C167.187 24.4361 167.248 24.7463 167.372 24.9546C167.495 25.1582 167.653 25.2979 167.847 25.3736C168.046 25.4446 168.262 25.4802 168.494 25.4802C168.664 25.4802 168.813 25.4683 168.941 25.4446C169.069 25.421 169.168 25.402 169.239 25.3878L169.623 27.1421C169.5 27.1894 169.325 27.2368 169.097 27.2841C168.87 27.3362 168.586 27.3646 168.245 27.3694C167.686 27.3788 167.166 27.2794 166.683 27.0711C166.2 26.8627 165.809 26.5408 165.511 26.1052C165.212 25.6696 165.063 25.1227 165.063 24.4645V13.7046Z" fill="#111827"/>
<path d="M157.579 27.4475C156.523 27.4475 155.614 27.2083 154.852 26.7301C154.095 26.2472 153.512 25.5819 153.105 24.7344C152.698 23.8868 152.494 22.9162 152.494 21.8225C152.494 20.7145 152.702 19.7368 153.119 18.8892C153.536 18.0369 154.123 17.3717 154.881 16.8935C155.638 16.4153 156.531 16.1761 157.558 16.1761C158.387 16.1761 159.125 16.33 159.774 16.6378C160.423 16.9408 160.946 17.367 161.344 17.9162C161.746 18.4654 161.985 19.107 162.061 19.8409H159.994C159.881 19.3296 159.62 18.8892 159.213 18.5199C158.81 18.1506 158.271 17.9659 157.594 17.9659C157.002 17.9659 156.483 18.1222 156.038 18.4347C155.598 18.7424 155.255 19.1828 155.008 19.7557C154.762 20.3239 154.639 20.9962 154.639 21.7727C154.639 22.5682 154.76 23.2547 155.001 23.8324C155.243 24.41 155.584 24.8575 156.024 25.1747C156.469 25.492 156.992 25.6506 157.594 25.6506C157.996 25.6506 158.361 25.5772 158.687 25.4304C159.019 25.2789 159.296 25.0635 159.518 24.7841C159.746 24.5047 159.904 24.1686 159.994 23.7756H162.061C161.985 24.4811 161.756 25.1108 161.372 25.6648C160.988 26.2188 160.475 26.6544 159.831 26.9716C159.192 27.2888 158.441 27.4475 157.579 27.4475Z" fill="#111827"/>
<path d="M145.948 27.4475C144.873 27.4475 143.947 27.2178 143.171 26.7585C142.399 26.2945 141.802 25.6435 141.381 24.8054C140.964 23.9626 140.756 22.9754 140.756 21.8438C140.756 20.7263 140.964 19.7415 141.381 18.8892C141.802 18.0369 142.389 17.3717 143.142 16.8935C143.9 16.4153 144.785 16.1761 145.798 16.1761C146.414 16.1761 147.011 16.2779 147.588 16.4815C148.166 16.6851 148.684 17.0047 149.144 17.4404C149.603 17.876 149.965 18.4418 150.23 19.1378C150.495 19.8291 150.628 20.6695 150.628 21.6591V22.4119H141.956V20.821H148.547C148.547 20.2623 148.433 19.7675 148.206 19.3367C147.979 18.9011 147.659 18.5578 147.247 18.3068C146.84 18.0559 146.362 17.9304 145.813 17.9304C145.216 17.9304 144.695 18.0772 144.25 18.3707C143.81 18.6596 143.469 19.0384 143.227 19.5071C142.991 19.9711 142.872 20.4754 142.872 21.0199V22.2628C142.872 22.992 143 23.6122 143.256 24.1236C143.516 24.635 143.878 25.0256 144.343 25.2955C144.807 25.5606 145.349 25.6932 145.969 25.6932C146.371 25.6932 146.738 25.6364 147.07 25.5227C147.401 25.4044 147.688 25.2292 147.929 24.9972C148.171 24.7652 148.355 24.4787 148.483 24.1378L150.493 24.5C150.332 25.0919 150.043 25.6103 149.627 26.0554C149.215 26.4957 148.696 26.839 148.071 27.0852C147.451 27.3267 146.743 27.4475 145.948 27.4475Z" fill="#111827"/>
<path d="M139.484 16.3182V18.0227H133.32V16.3182H139.484ZM135.01 27.2273V15.054C135.01 14.3722 135.159 13.8063 135.457 13.3565C135.756 12.902 136.151 12.5634 136.643 12.3409C137.136 12.1136 137.671 12 138.249 12C138.675 12 139.039 12.0355 139.342 12.1065C139.645 12.1728 139.87 12.2344 140.017 12.2912L139.52 14.0099C139.42 13.9815 139.293 13.9484 139.136 13.9105C138.98 13.8679 138.791 13.8466 138.568 13.8466C138.052 13.8466 137.683 13.9744 137.46 14.2301C137.242 14.4858 137.133 14.8551 137.133 15.3381V27.2273H135.01Z" fill="#111827"/>
<path d="M125.972 27.2274V16.3183H128.025V18.0512H128.139C128.337 17.4641 128.688 17.0024 129.19 16.6663C129.696 16.3254 130.269 16.1549 130.908 16.1549C131.041 16.1549 131.197 16.1596 131.377 16.1691C131.562 16.1786 131.706 16.1904 131.81 16.2046V18.2359C131.725 18.2122 131.574 18.1862 131.356 18.1577C131.138 18.1246 130.92 18.108 130.703 18.108C130.201 18.108 129.753 18.2146 129.36 18.4276C128.972 18.636 128.664 18.9272 128.437 19.3012C128.21 19.6705 128.096 20.0919 128.096 20.5654V27.2274H125.972Z" fill="#111827"/>
<path d="M118.936 27.4475C117.861 27.4475 116.935 27.2178 116.159 26.7585C115.387 26.2945 114.791 25.6435 114.369 24.8054C113.952 23.9626 113.744 22.9754 113.744 21.8438C113.744 20.7263 113.952 19.7415 114.369 18.8892C114.791 18.0369 115.378 17.3717 116.131 16.8935C116.888 16.4153 117.773 16.1761 118.787 16.1761C119.402 16.1761 119.999 16.2779 120.577 16.4815C121.154 16.6851 121.673 17.0047 122.132 17.4404C122.591 17.876 122.953 18.4418 123.219 19.1378C123.484 19.8291 123.616 20.6695 123.616 21.6591V22.4119H114.944V20.821H121.535C121.535 20.2623 121.422 19.7675 121.194 19.3367C120.967 18.9011 120.648 18.5578 120.236 18.3068C119.828 18.0559 119.35 17.9304 118.801 17.9304C118.204 17.9304 117.684 18.0772 117.238 18.3707C116.798 18.6596 116.457 19.0384 116.216 19.5071C115.979 19.9711 115.861 20.4754 115.861 21.0199V22.2628C115.861 22.992 115.988 23.6122 116.244 24.1236C116.505 24.635 116.867 25.0256 117.331 25.2955C117.795 25.5606 118.337 25.6932 118.957 25.6932C119.36 25.6932 119.727 25.6364 120.058 25.5227C120.389 25.4044 120.676 25.2292 120.917 24.9972C121.159 24.7652 121.344 24.4787 121.471 24.1378L123.481 24.5C123.32 25.0919 123.032 25.6103 122.615 26.0554C122.203 26.4957 121.684 26.839 121.059 27.0852C120.439 27.3267 119.731 27.4475 118.936 27.4475Z" fill="#111827"/>
<path d="M101.748 27.2273V12.6819H106.933C108.065 12.6819 109.002 12.8879 109.745 13.2998C110.489 13.7117 111.045 14.2752 111.414 14.9901C111.784 15.7004 111.968 16.5005 111.968 17.3907C111.968 18.2856 111.781 19.0905 111.407 19.8055C111.038 20.5157 110.479 21.0791 109.731 21.4958C108.988 21.9077 108.053 22.1137 106.926 22.1137H103.361V20.2529H106.727C107.442 20.2529 108.022 20.1298 108.467 19.8836C108.912 19.6326 109.239 19.2917 109.447 18.8609C109.655 18.43 109.76 17.9399 109.76 17.3907C109.76 16.8414 109.655 16.3538 109.447 15.9276C109.239 15.5015 108.91 15.1677 108.46 14.9262C108.015 14.6847 107.428 14.564 106.699 14.564H103.943V27.2273H101.748Z" fill="#111827"/>
<path d="M93.428 12.6819V27.2273H91.3044V12.6819H93.428Z" fill="#111827"/>
<path d="M84.2679 27.4475C83.1931 27.4475 82.2675 27.2178 81.4909 26.7585C80.7192 26.2945 80.1226 25.6435 79.7012 24.8054C79.2845 23.9626 79.0762 22.9754 79.0762 21.8438C79.0762 20.7263 79.2845 19.7415 79.7012 18.8892C80.1226 18.0369 80.7097 17.3717 81.4625 16.8935C82.2201 16.4153 83.1055 16.1761 84.1188 16.1761C84.7343 16.1761 85.3309 16.2779 85.9086 16.4815C86.4862 16.6851 87.0047 17.0047 87.464 17.4404C87.9232 17.876 88.2855 18.4418 88.5506 19.1378C88.8158 19.8291 88.9483 20.6695 88.9483 21.6591V22.4119H80.2765V20.821H86.8674C86.8674 20.2623 86.7537 19.7675 86.5265 19.3367C86.2992 18.9011 85.9796 18.5578 85.5676 18.3068C85.1605 18.0559 84.6822 17.9304 84.133 17.9304C83.5364 17.9304 83.0156 18.0772 82.5705 18.3707C82.1302 18.6596 81.7892 19.0384 81.5478 19.5071C81.311 19.9711 81.1926 20.4754 81.1926 21.0199V22.2628C81.1926 22.992 81.3205 23.6122 81.5762 24.1236C81.8366 24.635 82.1988 25.0256 82.6628 25.2955C83.1268 25.5606 83.669 25.6932 84.2892 25.6932C84.6917 25.6932 85.0587 25.6364 85.3901 25.5227C85.7215 25.4044 86.008 25.2292 86.2495 24.9972C86.4909 24.7652 86.6756 24.4787 86.8034 24.1378L88.8134 24.5C88.6524 25.0919 88.3636 25.6103 87.9469 26.0554C87.535 26.4957 87.0165 26.839 86.3915 27.0852C85.7712 27.3267 85.0634 27.4475 84.2679 27.4475Z" fill="#111827"/>
<path d="M70.6563 16.3182L73.064 20.5654L75.493 16.3182H77.8154L74.4134 21.7728L77.8438 27.2273H75.5214L73.064 23.1506L70.6137 27.2273H68.2842L71.6791 21.7728L68.3268 16.3182H70.6563Z" fill="#111827"/>
<path d="M63.9996 27.2273V16.3182H66.1232V27.2273H63.9996ZM65.0721 14.635C64.7027 14.635 64.3855 14.5119 64.1204 14.2657C63.8599 14.0147 63.7297 13.7164 63.7297 13.3708C63.7297 13.0204 63.8599 12.7221 64.1204 12.4759C64.3855 12.225 64.7027 12.0995 65.0721 12.0995C65.4414 12.0995 65.7563 12.225 66.0167 12.4759C66.2818 12.7221 66.4144 13.0204 66.4144 13.3708C66.4144 13.7164 66.2818 14.0147 66.0167 14.2657C65.7563 14.5119 65.4414 14.635 65.0721 14.635Z" fill="#111827"/>
<path d="M51.3772 27.2273V12.6819H56.5619C57.6935 12.6819 58.631 12.8879 59.3744 13.2998C60.1177 13.7117 60.6741 14.2752 61.0434 14.9901C61.4127 15.7004 61.5974 16.5005 61.5974 17.3907C61.5974 18.2856 61.4103 19.0905 61.0363 19.8055C60.667 20.5157 60.1083 21.0791 59.3602 21.4958C58.6168 21.9077 57.6816 22.1137 56.5548 22.1137H52.9894V20.2529H56.3559C57.0709 20.2529 57.6509 20.1298 58.0959 19.8836C58.541 19.6326 58.8677 19.2917 59.0761 18.8609C59.2844 18.43 59.3886 17.9399 59.3886 17.3907C59.3886 16.8414 59.2844 16.3538 59.0761 15.9276C58.8677 15.5015 58.5387 15.1677 58.0888 14.9262C57.6438 14.6847 57.0566 14.564 56.3275 14.564H53.5718V27.2273H51.3772Z" fill="#111827"/>
<defs>
<clipPath id="clip0_896_273">
<rect width="38.9624" height="40" fill="white" transform="translate(0.377197)"/>
</clipPath>
</defs>
</svg>
