<svg width="281" height="125" viewBox="0 0 281 125" fill="none" xmlns="http://www.w3.org/2000/svg">
<path d="M279.84 47.2322V78.4894H275.723V47.2322H279.84ZM254.188 75.4297C254.993 75.5683 256.177 75.6144 257.643 75.6144C261.903 75.6144 265.83 74.0839 265.83 69.5393C265.83 65.273 262.092 63.5103 257.596 63.5103H254.188V75.4297ZM254.188 60.4493H257.927C262.281 60.4493 264.837 58.2235 264.837 55.2086C264.837 51.5453 261.998 50.1079 257.832 50.1079C255.94 50.1079 254.851 50.2471 254.188 50.3856V60.4493ZM250.07 47.6491C251.869 47.2791 254.708 47 257.596 47C261.713 47 264.364 47.696 266.351 49.2727C268.008 50.4786 269.002 52.3337 269.002 54.791C269.002 57.8059 266.967 60.4493 263.607 61.6552V61.7482C266.635 62.4897 270.185 64.9478 270.185 69.5854C270.185 72.2757 269.097 74.3161 267.488 75.8467C265.263 77.8402 261.666 78.7685 256.46 78.7685C253.62 78.7685 251.443 78.5824 250.07 78.3977V47.6491ZM224.42 63.0465C224.42 60.4031 224.372 58.1304 224.23 56.0438H227.875L228.016 60.4493H228.205C229.247 57.4351 231.754 55.5332 234.548 55.5332C235.02 55.5332 235.352 55.5801 235.731 55.6724V59.5217C235.305 59.4294 234.879 59.3825 234.311 59.3825C231.377 59.3825 229.294 61.5629 228.726 64.6232C228.632 65.18 228.538 65.8291 228.538 66.5244V78.4894H224.42V63.0465ZM215.237 65.087C215.285 62.4897 214.149 58.455 209.463 58.455C205.25 58.455 203.405 62.2582 203.075 65.087H215.237ZM203.027 68.0088C203.122 73.5271 206.719 75.7991 210.883 75.7991C213.865 75.7991 215.664 75.2892 217.226 74.64L217.936 77.5618C216.468 78.2117 213.96 78.9531 210.316 78.9531C203.263 78.9531 199.051 74.4085 199.051 67.638C199.051 60.8669 203.122 55.5332 209.795 55.5332C217.273 55.5332 219.26 61.9798 219.26 66.1075C219.26 66.942 219.166 67.5919 219.118 68.0088H203.027ZM168.004 56.0438L171.033 67.452C171.696 69.9569 172.31 72.2757 172.737 74.5939H172.879C173.399 72.3212 174.156 69.9107 174.914 67.4988L178.653 56.0438H182.154L185.704 67.2666C186.556 69.9569 187.218 72.3212 187.74 74.5939H187.882C188.261 72.3212 188.875 69.9569 189.632 67.3128L192.899 56.0438H197.015L189.632 78.4894H185.846L182.344 67.7772C181.539 65.273 180.877 63.0465 180.308 60.4031H180.214C179.646 63.0927 178.936 65.4122 178.132 67.8227L174.44 78.4894H170.654L163.744 56.0438H168.004ZM143.25 67.3128C143.25 72.2295 146.137 75.939 150.207 75.939C154.183 75.939 157.165 72.2757 157.165 67.2204C157.165 63.4173 155.224 58.5942 150.302 58.5942C145.38 58.5942 143.25 63.0465 143.25 67.3128ZM161.424 67.0819C161.424 75.3829 155.555 79 150.018 79C143.818 79 139.038 74.5484 139.038 67.452C139.038 59.9393 144.055 55.5332 150.396 55.5332C156.975 55.5332 161.424 60.2177 161.424 67.0819ZM120.958 62.6751C121.857 62.9073 122.993 62.9997 124.366 62.9997C129.335 62.9997 132.364 60.6346 132.364 56.3215C132.364 52.1945 129.383 50.2002 124.839 50.2002C123.041 50.2002 121.668 50.3394 120.958 50.5248V62.6751ZM116.84 47.603C118.828 47.2791 121.431 47 124.744 47C128.815 47 131.796 47.9275 133.689 49.5972C135.441 51.0816 136.482 53.3536 136.482 56.1362C136.482 58.9656 135.63 61.1914 134.021 62.815C131.843 65.087 128.294 66.246 124.271 66.246C123.041 66.246 121.905 66.2005 120.958 65.9683V78.4894H116.84V47.603Z" fill="#CA800F"/>
<mask id="mask0_5169_734" style="mask-type:alpha" maskUnits="userSpaceOnUse" x="0" y="0" width="101" height="125">
<path d="M95.2311 0C98.3286 0 100.84 2.33476 100.84 5.21484V119.785C100.84 122.665 98.3286 125 95.2311 125H5.60227C2.50823 125 0 122.668 0 119.791V67.7084C0 64.8319 2.50823 62.5 5.60227 62.5H27.3109V36.4584C27.3109 33.5819 29.8192 31.25 32.9132 31.25H54.6218V5.21484C54.6218 2.33477 57.1332 0 60.2311 0H95.2311Z" fill="white"/>
</mask>
<g mask="url(#mask0_5169_734)">
<path d="M94.5379 5.21484V119.785C94.5379 122.665 92.3116 125 89.5661 125H58.5434C55.7975 125 53.5715 122.665 53.5715 119.785V5.21484C53.5715 2.33477 55.7975 0 58.5434 0H89.5661C92.3123 0 94.5379 2.33476 94.5379 5.21484Z" fill="url(#paint0_linear_5169_734)"/>
<g filter="url(#filter0_dd_5169_734)">
<path d="M65.1259 36.7063V125H27.3108V36.7063C27.3108 33.8379 29.363 31.5126 31.8945 31.5126H60.542C63.0736 31.5126 65.1259 33.8379 65.1259 36.7063Z" fill="url(#paint1_linear_5169_734)"/>
</g>
<path d="M0 68.1898V119.835C0 122.688 1.93818 125 4.32903 125H35.7143V68.1898C35.7143 65.3375 33.7761 63.0252 31.3853 63.0252H4.32903C1.93818 63.0252 0 65.3375 0 68.1898Z" fill="url(#paint2_linear_5169_734)"/>
</g>
<defs>
<filter id="filter0_dd_5169_734" x="26.8941" y="31.2001" width="38.6485" height="94.3208" filterUnits="userSpaceOnUse" color-interpolation-filters="sRGB">
<feFlood flood-opacity="0" result="BackgroundImageFix"/>
<feColorMatrix in="SourceAlpha" type="matrix" values="0 0 0 0 0 0 0 0 0 0 0 0 0 0 0 0 0 0 127 0" result="hardAlpha"/>
<feOffset dy="0.0197916"/>
<feGaussianBlur stdDeviation="0.0197916"/>
<feColorMatrix type="matrix" values="0 0 0 0 0 0 0 0 0 0 0 0 0 0 0 0 0 0 0.2 0"/>
<feBlend mode="normal" in2="BackgroundImageFix" result="effect1_dropShadow_5169_734"/>
<feColorMatrix in="SourceAlpha" type="matrix" values="0 0 0 0 0 0 0 0 0 0 0 0 0 0 0 0 0 0 127 0" result="hardAlpha"/>
<feOffset dy="0.104166"/>
<feGaussianBlur stdDeviation="0.208334"/>
<feColorMatrix type="matrix" values="0 0 0 0 0 0 0 0 0 0 0 0 0 0 0 0 0 0 0.18 0"/>
<feBlend mode="normal" in2="effect1_dropShadow_5169_734" result="effect2_dropShadow_5169_734"/>
<feBlend mode="normal" in="SourceGraphic" in2="effect2_dropShadow_5169_734" result="shape"/>
</filter>
<linearGradient id="paint0_linear_5169_734" x1="46.7438" y1="-1.21109e-06" x2="102.28" y2="115.74" gradientUnits="userSpaceOnUse">
<stop stop-color="#E6AD10"/>
<stop offset="1" stop-color="#C87E0E"/>
</linearGradient>
<linearGradient id="paint1_linear_5169_734" x1="27.3077" y1="31.5126" x2="75.8262" y2="117.151" gradientUnits="userSpaceOnUse">
<stop stop-color="#F6D751"/>
<stop offset="1" stop-color="#E6AD10"/>
</linearGradient>
<linearGradient id="paint2_linear_5169_734" x1="-0.00292258" y1="63.0252" x2="27.8645" y2="120.115" gradientUnits="userSpaceOnUse">
<stop stop-color="#F9E589"/>
<stop offset="1" stop-color="#F6D751"/>
</linearGradient>
</defs>
</svg>
