<svg width="431" height="125" viewBox="0 0 431 125" fill="none" xmlns="http://www.w3.org/2000/svg">
<path d="M162.39 53.2164C162.39 40.0073 158.624 33.2259 151.09 32.8549C148.092 32.7134 145.167 33.1905 142.32 34.2962C140.047 35.109 138.518 35.9145 137.713 36.7281V68.2569C142.532 71.2811 146.811 72.6871 150.542 72.4658C158.437 71.9424 162.39 65.5329 162.39 53.2164ZM171.682 53.7642C171.682 60.4749 170.108 66.0454 166.943 70.4747C163.415 75.4882 158.526 78.0698 152.275 78.2113C147.562 78.3609 142.708 76.8851 137.712 73.7901V102.446L129.631 99.5633V35.958C130.957 34.3316 132.664 32.9347 134.733 31.7491C139.543 28.9462 145.386 27.5057 152.266 27.435L152.38 27.5493C158.667 27.4704 163.511 30.052 166.915 35.2859C170.09 40.0871 171.682 46.2408 171.682 53.7642ZM221.07 72.571C221.07 81.572 220.169 87.8047 218.366 91.2707C216.553 94.7358 213.104 97.5033 208.012 99.5642C203.883 101.191 199.417 102.075 194.626 102.226L193.29 97.1332C198.162 96.471 201.593 95.807 203.582 95.144C207.499 93.8178 210.186 91.785 211.663 89.061C212.848 86.8423 213.431 82.607 213.431 76.339V74.2346C207.905 76.7463 202.114 77.9927 196.058 77.9927C192.079 77.9927 188.569 76.7463 185.545 74.2346C182.15 71.5024 180.453 68.0373 180.453 63.8375V30.2025L188.534 27.435V61.2886C188.534 64.9042 189.701 67.6899 192.034 69.6438C194.368 71.5977 197.393 72.5356 201.097 72.4639C204.802 72.3841 208.771 70.9518 212.988 68.1489V28.6541H221.07L221.07 72.571ZM252.616 77.7695C251.731 77.8443 250.843 77.8824 249.955 77.8838C245.384 77.8838 241.82 76.7971 239.275 74.6128C236.737 72.4295 235.464 69.4152 235.464 65.5682V33.7384H229.929V28.655H235.464V15.1539L243.536 12.2802V28.655H252.616V33.7384H243.536V65.3469C243.536 68.3802 244.349 70.5282 245.976 71.7845C247.373 72.8186 249.592 73.4109 252.616 73.5615V77.7695H252.616ZM301.546 77.1064H293.465V45.9134C293.465 42.7394 292.723 40.0073 291.246 37.7269C289.54 35.1444 287.17 33.8536 284.128 33.8536C280.423 33.8536 275.791 35.8074 270.229 39.7152V77.1064H262.149V2.54621L270.229 0V33.9597C275.393 30.2016 281.034 28.3185 287.161 28.3185C291.441 28.3185 294.906 29.7599 297.559 32.6335C300.221 35.5063 301.547 39.0875 301.547 43.3672L301.546 77.1064ZM344.498 51.9437C344.498 46.8685 343.534 42.6778 341.615 39.3623C339.334 35.3222 335.789 33.1905 330.996 32.9701C322.137 33.4826 317.716 39.8304 317.716 51.9972C317.716 57.5758 318.635 62.2356 320.492 65.9755C322.862 70.7414 326.416 73.0935 331.156 73.0136C340.05 72.942 344.498 65.922 344.498 51.9437ZM353.348 51.9963C353.348 59.2204 351.5 65.2326 347.813 70.0329C343.754 75.4093 338.15 78.1051 330.996 78.1051C323.906 78.1051 318.38 75.4084 314.392 70.0329C310.776 65.2326 308.971 59.2204 308.971 51.9963C308.971 45.2067 310.925 39.4948 314.834 34.8441C318.963 29.9104 324.391 27.435 331.103 27.435C337.812 27.435 343.277 29.9104 347.486 34.8441C351.394 39.4948 353.348 45.2067 353.348 51.9963ZM399.677 77.1064H391.596V44.1454C391.596 40.5298 390.509 37.7087 388.334 35.675C386.158 33.6504 383.258 32.6689 379.642 32.7478C375.806 32.8186 372.153 34.074 368.688 36.5059V77.1064H360.607V35.5072C365.257 32.1219 369.537 29.9104 373.445 28.8764C377.131 27.913 380.385 27.435 383.188 27.435C385.105 27.435 386.91 27.62 388.608 27.9919C391.782 28.7258 394.364 30.0873 396.352 32.0857C398.572 34.2962 399.677 36.9477 399.677 40.0517V77.1064Z" fill="#646464"/>
<path d="M49.8162 2.84464C45.6581 2.86369 41.6878 3.21836 38.1946 3.837C27.9027 5.65571 26.0341 9.46096 26.0341 16.48V25.7496H50.355V28.8392H16.906C9.83795 28.8392 3.64796 33.088 1.71222 41.1702C-0.521037 50.4343 -0.61991 56.2152 1.71222 65.8884C3.44114 73.0889 7.57022 78.2194 14.6383 78.2194H23.0008V67.1076C23.0008 59.0798 29.9464 51.999 38.1946 51.999H62.4874C69.2497 51.999 74.6479 46.4313 74.6479 39.6399V16.4791C74.6479 9.88821 69.0874 4.93639 62.4874 3.83609C58.3084 3.14126 53.9743 2.82468 49.8162 2.84464ZM36.6634 10.2991C39.176 10.2991 41.227 12.3845 41.227 14.948C41.227 17.5023 39.1751 19.5687 36.6634 19.5687C34.1426 19.5687 32.0998 17.5032 32.0998 14.948C32.0998 12.3845 34.1426 10.2991 36.6634 10.2991Z" fill="url(#paint0_linear_3785_4655)"/>
<path d="M77.6813 28.8384V39.6382C77.6813 48.0116 70.5824 55.0588 62.4875 55.0588H38.1947C31.5402 55.0588 26.0342 60.7535 26.0342 67.4179V90.5769C26.0342 97.1687 31.7652 101.046 38.1947 102.936C45.8931 105.2 53.276 105.609 62.4875 102.936C68.6103 101.164 74.648 97.595 74.648 90.5769V81.3082H50.3551V78.2186H86.8084C93.8774 78.2186 96.5107 73.2877 98.9689 65.8876C101.509 58.2699 101.401 50.9424 98.9689 41.1694C97.2218 34.1331 93.8856 28.8384 86.8084 28.8384H77.6813ZM64.0177 87.4873C66.5386 87.4873 68.5813 89.5527 68.5813 92.108C68.5813 94.6715 66.5386 96.7569 64.0177 96.7569C61.5051 96.7569 59.4542 94.6715 59.4542 92.108C59.4542 89.5537 61.506 87.4873 64.0177 87.4873Z" fill="url(#paint1_linear_3785_4655)"/>
<path d="M415.414 21.45H416.831V12.5641H420.186V11.5046H412.057V12.5641H415.413L415.414 21.45ZM421.444 21.45H422.654V13.3342L425.281 21.4491H426.628L429.366 13.3615V21.45H430.687V11.5055H428.94L425.947 20.0259L423.397 11.5055H421.444V21.45Z" fill="#646464"/>
<path opacity="0.444" d="M83.2234 118.68C83.2234 122.171 68.6311 125 50.6298 125C32.6295 125 18.0371 122.171 18.0371 118.68C18.0371 115.19 32.6295 112.36 50.6298 112.36C68.6311 112.36 83.2234 115.19 83.2234 118.68Z" fill="url(#paint2_radial_3785_4655)"/>
<defs>
<linearGradient id="paint0_linear_3785_4655" x1="-2.39872" y1="5.73914" x2="53.6853" y2="53.5243" gradientUnits="userSpaceOnUse">
<stop stop-color="#5A9FD4"/>
<stop offset="1" stop-color="#306998"/>
</linearGradient>
<linearGradient id="paint1_linear_3785_4655" x1="74.7296" y1="83.3136" x2="54.6079" y2="55.1199" gradientUnits="userSpaceOnUse">
<stop stop-color="#FFD43B"/>
<stop offset="1" stop-color="#FFE873"/>
</linearGradient>
<radialGradient id="paint2_radial_3785_4655" cx="0" cy="0" r="1" gradientUnits="userSpaceOnUse" gradientTransform="translate(50.6194 118.535) rotate(-90) scale(6.31878 27.78)">
<stop stop-color="#B8B8B8" stop-opacity="0.498"/>
<stop offset="1" stop-color="#7F7F7F" stop-opacity="0"/>
</radialGradient>
</defs>
</svg>
