<svg width="80" height="60" viewBox="0 0 80 60" fill="none" xmlns="http://www.w3.org/2000/svg">
<g clip-path="url(#clip0_896_208)">
<path d="M68.8427 34.4861C66.0534 34.5007 63.6291 35.1729 61.5992 36.1665C60.8544 34.6906 60.1096 33.3755 59.9781 32.4111C59.8321 31.2859 59.6569 30.5991 59.8321 29.2547C60.0074 27.9103 60.796 25.996 60.7814 25.8499C60.7668 25.7038 60.6061 25.017 58.9997 25.0024C57.3933 24.9878 56.0059 25.3093 55.8452 25.733C55.6846 26.1568 55.3779 27.1212 55.1735 28.1149C54.896 29.5762 51.9606 34.7929 50.2812 37.5255C49.7408 36.4588 49.2735 35.5236 49.1713 34.7783C49.0252 33.6531 48.85 32.9663 49.0252 31.622C49.2005 30.2776 49.9891 28.3633 49.9745 28.2172C49.9599 28.0711 49.7992 27.3843 48.1928 27.3697C46.5864 27.355 45.199 27.6765 45.0384 28.1003C44.8777 28.5241 44.7025 29.5177 44.3666 30.4822C44.0307 31.4466 40.1315 40.1558 39.1092 42.4062C38.5835 43.5606 38.1308 44.4812 37.8095 45.1095C37.8095 45.1095 37.7949 45.1534 37.7511 45.2264C37.4736 45.7671 37.3129 46.0594 37.3129 46.0594C37.3129 46.0594 37.3129 46.0594 37.3129 46.074C37.0939 46.4685 36.8602 46.8338 36.7434 46.8338C36.6558 46.8338 36.4951 45.7817 36.7726 44.3497C37.3567 41.3248 38.7441 36.6195 38.7295 36.4588C38.7295 36.3711 38.9924 35.5528 37.8241 35.129C36.685 34.7053 36.2761 35.4067 36.1738 35.4067C36.0716 35.4067 35.9986 35.6551 35.9986 35.6551C35.9986 35.6551 37.2691 30.3653 33.5743 30.3653C31.2669 30.3653 28.0833 32.8933 26.5061 35.1729C25.513 35.7135 23.3954 36.8679 21.1318 38.11C20.2702 38.5922 19.3794 39.0745 18.547 39.5275C18.4885 39.469 18.4301 39.396 18.3717 39.3375C13.9029 34.5591 5.63714 31.1836 5.98763 24.7686C6.11907 22.4305 6.92228 16.2932 21.862 8.84067C34.1585 2.77637 43.9431 4.45684 45.6371 8.18309C48.0614 13.5021 40.3944 23.3804 27.689 24.8124C22.8405 25.3531 20.2994 23.4827 19.6569 22.7812C18.9851 22.0506 18.8829 22.0068 18.6346 22.1529C18.2257 22.3721 18.4885 23.0297 18.6346 23.4096C19.0143 24.4033 20.5769 26.1568 23.2202 27.0189C25.5568 27.7788 31.2377 28.2026 38.1161 25.5431C45.8124 22.5621 51.8292 14.2766 50.0621 7.33555C48.295 0.292203 36.6119 -2.03123 25.5568 1.89961C18.9851 4.23765 11.8584 7.92006 6.73243 12.713C0.642615 18.412 -0.32124 23.3658 0.0730642 25.4408C1.48964 32.8056 11.6393 37.5986 15.6992 41.1495C15.4948 41.2664 15.3049 41.3687 15.1443 41.4564C13.1143 42.4646 5.37427 46.5124 3.44656 50.7939C1.25598 55.6453 3.79705 59.1232 5.4765 59.5908C10.6901 61.0374 16.0497 58.4364 18.9267 54.1402C21.8036 49.8441 21.4531 44.262 20.1242 41.7048C20.1096 41.6755 20.095 41.6463 20.0658 41.6171C20.5915 41.3102 21.1318 40.9887 21.6576 40.6819C22.6945 40.0681 23.7167 39.4982 24.593 39.0306C24.0964 40.3896 23.7313 42.0116 23.5561 44.3497C23.337 47.0969 24.4615 50.6624 25.9365 52.0652C26.5937 52.6789 27.3677 52.6936 27.8642 52.6936C29.5875 52.6936 30.3615 51.2615 31.2231 49.5664C32.2746 47.4914 33.2239 45.0803 33.2239 45.0803C33.2239 45.0803 32.0409 51.5976 35.2538 51.5976C36.4221 51.5976 37.605 50.0779 38.1308 49.3034C38.1308 49.318 38.1308 49.318 38.1308 49.318C38.1308 49.318 38.16 49.2742 38.2184 49.1719C38.3352 48.9819 38.4082 48.865 38.4082 48.865C38.4082 48.865 38.4082 48.8504 38.4082 48.8358C38.8755 48.0175 39.927 46.1617 41.4896 43.0784C43.505 39.1037 45.4473 34.1354 45.4473 34.1354C45.4473 34.1354 45.6225 35.3482 46.2213 37.3648C46.5718 38.5484 47.302 39.8489 47.8861 41.1056C47.4188 41.7632 47.1267 42.1285 47.1267 42.1285C47.1267 42.1285 47.1267 42.1285 47.1413 42.1432C46.7616 42.64 46.3527 43.1807 45.9 43.7067C44.3082 45.6064 42.4097 47.7837 42.1468 48.412C41.8401 49.1573 41.9132 49.6979 42.4973 50.1363C42.9208 50.4578 43.6802 50.5016 44.4542 50.4578C45.8854 50.3555 46.8931 50.0048 47.3896 49.7856C48.1636 49.508 49.069 49.0842 49.9161 48.4559C51.4787 47.3015 52.4279 45.6502 52.3403 43.4729C52.2965 42.2747 51.9022 41.0764 51.4203 39.9512C51.5663 39.7467 51.6977 39.5421 51.8438 39.3375C54.3118 35.7281 56.2249 31.7681 56.2249 31.7681C56.2249 31.7681 56.4002 32.9809 56.999 34.9975C57.291 36.0204 57.8898 37.131 58.4155 38.2123C56.0935 40.0974 54.6623 42.2893 54.1512 43.7213C53.2312 46.3809 53.9467 47.5791 55.3049 47.8567C55.9183 47.9883 56.7945 47.696 57.4371 47.4184C58.2549 47.1553 59.2187 46.7023 60.1388 46.0301C61.7014 44.8757 63.2056 43.2683 63.118 41.091C63.0742 40.0974 62.8113 39.1183 62.4462 38.1685C64.4177 37.3502 66.9588 36.8972 70.2009 37.2771C77.1523 38.0954 78.5251 42.4354 78.2622 44.262C77.9993 46.0886 76.5389 47.0823 76.057 47.3891C75.5751 47.696 75.4144 47.7983 75.4583 48.0175C75.5167 48.339 75.7503 48.3243 76.1592 48.2659C76.7288 48.1636 79.8102 46.79 79.9416 43.4291C80.1607 39.1329 76.0716 34.4422 68.8427 34.4861ZM15.2173 52.5767C12.9099 55.0901 9.69702 56.0399 8.30965 55.2362C6.82005 54.374 7.40421 50.6624 10.2374 48.0029C11.9606 46.3809 14.1804 44.8757 15.6554 43.9551C15.9913 43.7506 16.4878 43.4583 17.0866 43.093C17.1888 43.0345 17.2472 43.0053 17.2472 43.0053C17.364 42.9322 17.4809 42.8592 17.5977 42.7861C18.6346 46.5854 17.6415 49.9318 15.2173 52.5767ZM32.0117 41.1495C31.2085 43.1076 29.5291 48.1198 28.5068 47.8421C27.6306 47.6083 27.0902 43.809 28.3316 40.0535C28.9595 38.1685 30.2885 35.9181 31.0625 35.0414C32.3184 33.6385 33.7058 33.1709 34.0417 33.7408C34.4652 34.4861 32.5083 39.922 32.0117 41.1495ZM45.8708 47.7837C45.5349 47.959 45.2136 48.0759 45.0676 47.9883C44.9654 47.9298 45.2136 47.696 45.2136 47.696C45.2136 47.696 46.9515 45.8256 47.6379 44.978C48.0322 44.4812 48.4995 43.8967 48.996 43.2391C48.996 43.2976 48.996 43.3706 48.996 43.4291C48.996 45.6648 46.8347 47.1699 45.8708 47.7837ZM56.5608 45.3433C56.3126 45.168 56.3564 44.5835 57.1888 42.7569C57.5101 42.0409 58.2695 40.8426 59.5692 39.6882C59.7153 40.1558 59.8175 40.6088 59.8029 41.0326C59.7883 43.8528 57.773 44.905 56.5608 45.3433Z" fill="#CD6799"/>
</g>
<defs>
<clipPath id="clip0_896_208">
<rect width="80" height="60" fill="white"/>
</clipPath>
</defs>
</svg>
