<svg width="134" height="40" viewBox="0 0 134 40" fill="none" xmlns="http://www.w3.org/2000/svg">
<g clip-path="url(#clip0_896_254)">
<mask id="mask0_896_254" style="mask-type:alpha" maskUnits="userSpaceOnUse" x="0" y="0" width="41" height="40">
<path fill-rule="evenodd" clip-rule="evenodd" d="M28.742 39.7268C29.372 39.9723 30.0903 39.9566 30.7262 39.6506L38.9615 35.6879C39.8269 35.2715 40.3772 34.3957 40.3772 33.4349V6.56532C40.3772 5.60452 39.8269 4.72872 38.9616 4.31232L30.7262 0.349502C29.8917 -0.0520519 28.915 0.0463037 28.1826 0.57878C28.078 0.654844 27.9783 0.739772 27.8848 0.833364L12.1192 15.2166L5.25208 10.0038C4.6128 9.5186 3.71865 9.55836 3.12493 10.0984L0.922409 12.102C0.196177 12.7626 0.195344 13.9051 0.920609 14.5668L6.87604 20L0.920609 25.4333C0.195344 26.095 0.196177 27.2375 0.922409 27.8981L3.12493 29.9016C3.71865 30.4417 4.6128 30.4815 5.25208 29.9962L12.1192 24.7835L27.8848 39.1667C28.1342 39.4162 28.427 39.6042 28.742 39.7268ZM30.3833 10.9196L18.4208 20L30.3833 29.0805V10.9196Z" fill="white"/>
</mask>
<g mask="url(#mask0_896_254)">
<path d="M38.9617 4.31852L30.7199 0.350253C29.7659 -0.109072 28.6258 0.0846811 27.8771 0.833369L0.896528 25.4333C0.170818 26.095 0.171653 27.2375 0.898328 27.8981L3.10218 29.9016C3.69627 30.4417 4.59098 30.4815 5.23062 29.9962L37.7215 5.348C38.8115 4.52108 40.3771 5.29852 40.3771 6.66672V6.57104C40.3771 5.61064 39.8269 4.73516 38.9617 4.31852Z" fill="#0065A9"/>
<g filter="url(#filter0_d_896_254)">
<path d="M38.9617 35.6816L30.7199 39.6499C29.7659 40.1093 28.6258 39.9154 27.8771 39.1668L0.896528 14.5668C0.170818 13.9052 0.171653 12.7626 0.898328 12.102L3.10218 10.0985C3.69627 9.5584 4.59098 9.51864 5.23062 10.0039L37.7215 34.6521C38.8115 35.479 40.3771 34.7016 40.3771 33.3334V33.4291C40.3771 34.3895 39.8269 35.265 38.9617 35.6816Z" fill="#007ACC"/>
</g>
<g filter="url(#filter1_d_896_254)">
<path d="M30.7203 39.6506C29.766 40.1096 28.626 39.9155 27.8772 39.1667C28.7998 40.0893 30.3772 39.4358 30.3772 38.1312V1.8689C30.3772 0.564205 28.7998 -0.0891934 27.8772 0.833365C28.626 0.0846098 29.766 -0.109417 30.7203 0.349502L38.9607 4.31233C39.8266 4.72873 40.3772 5.60453 40.3772 6.56533V33.4349C40.3772 34.3957 39.8266 35.2715 38.9606 35.6879L30.7203 39.6506Z" fill="#1F9CF0"/>
</g>
<g style="mix-blend-mode:overlay" opacity="0.25">
<path fill-rule="evenodd" clip-rule="evenodd" d="M28.7175 39.727C29.3475 39.9724 30.0659 39.9567 30.7018 39.6507L38.9371 35.688C39.8025 35.2716 40.3528 34.3958 40.3528 33.435V6.56547C40.3528 5.60463 39.8025 4.72883 38.9371 4.31243L30.7018 0.349624C29.8673 -0.0519295 28.8906 0.0464261 28.1582 0.578898C28.0536 0.654966 27.9539 0.739894 27.8604 0.833486L12.0948 15.2167L5.22766 10.004C4.58842 9.51871 3.69424 9.55851 3.10052 10.0985L0.897996 12.1021C0.171762 12.7627 0.17093 13.9052 0.896196 14.5669L6.85162 20.0001L0.896196 25.4334C0.17093 26.0951 0.171762 27.2376 0.897996 27.8982L3.10052 29.9017C3.69424 30.4418 4.58842 30.4816 5.22766 29.9963L12.0948 24.7836L27.8604 39.1668C28.1098 39.4163 28.4026 39.6043 28.7175 39.727ZM30.3589 10.9197L18.3964 20.0001L30.3589 29.0806V10.9197Z" fill="url(#paint0_linear_896_254)"/>
</g>
</g>
<path d="M128.455 27.9645C127.38 27.9645 126.454 27.7349 125.678 27.2756C124.906 26.8116 124.309 26.1606 123.888 25.3225C123.471 24.4797 123.263 23.4925 123.263 22.3609C123.263 21.2434 123.471 20.2586 123.888 19.4063C124.309 18.554 124.896 17.8888 125.649 17.4106C126.407 16.9323 127.292 16.6932 128.306 16.6932C128.921 16.6932 129.518 16.795 130.095 16.9986C130.673 17.2022 131.191 17.5218 131.651 17.9574C132.11 18.393 132.472 18.9589 132.737 19.6549C133.003 20.3462 133.135 21.1866 133.135 22.1762V22.929H124.463V21.3381H131.054C131.054 20.7794 130.94 20.2846 130.713 19.8537C130.486 19.4181 130.166 19.0749 129.754 18.8239C129.347 18.573 128.869 18.4475 128.32 18.4475C127.723 18.4475 127.202 18.5943 126.757 18.8878C126.317 19.1767 125.976 19.5555 125.735 20.0242C125.498 20.4882 125.379 20.9925 125.379 21.537V22.7799C125.379 23.5091 125.507 24.1293 125.763 24.6407C126.023 25.152 126.386 25.5427 126.85 25.8126C127.314 26.0777 127.856 26.2103 128.476 26.2103C128.878 26.2103 129.245 26.1535 129.577 26.0398C129.908 25.9215 130.195 25.7463 130.436 25.5143C130.678 25.2823 130.862 24.9958 130.99 24.6549L133 25.0171C132.839 25.609 132.55 26.1274 132.134 26.5725C131.722 27.0128 131.203 27.3561 130.578 27.6023C129.958 27.8438 129.25 27.9645 128.455 27.9645Z" fill="#007ACC"/>
<path d="M115.317 27.9574C114.437 27.9574 113.651 27.7325 112.959 27.2827C112.273 26.8281 111.733 26.1818 111.34 25.3437C110.952 24.5009 110.758 23.49 110.758 22.3111C110.758 21.1321 110.954 20.1236 111.347 19.2855C111.745 18.4474 112.289 17.8059 112.981 17.3608C113.672 16.9157 114.455 16.6932 115.331 16.6932C116.009 16.6932 116.553 16.8068 116.965 17.0341C117.382 17.2566 117.704 17.517 117.931 17.8153C118.163 18.1136 118.343 18.3764 118.471 18.6037H118.598V13.1989H120.722V27.7443H118.648V26.0469H118.471C118.343 26.2789 118.158 26.544 117.917 26.8423C117.68 27.1406 117.353 27.401 116.937 27.6236C116.52 27.8461 115.98 27.9574 115.317 27.9574ZM115.786 26.1463C116.397 26.1463 116.913 25.9853 117.334 25.6633C117.76 25.3366 118.082 24.8845 118.3 24.3068C118.523 23.7292 118.634 23.0568 118.634 22.2898C118.634 21.5322 118.525 20.8693 118.307 20.3011C118.089 19.7329 117.77 19.2902 117.348 18.973C116.927 18.6558 116.406 18.4971 115.786 18.4971C115.147 18.4971 114.614 18.6629 114.188 18.9943C113.762 19.3257 113.44 19.7779 113.222 20.3508C113.009 20.9238 112.902 21.5701 112.902 22.2898C112.902 23.0189 113.011 23.6747 113.229 24.2571C113.447 24.8395 113.769 25.3011 114.195 25.642C114.626 25.9782 115.156 26.1463 115.786 26.1463Z" fill="#007ACC"/>
<path d="M103.778 27.9645C102.755 27.9645 101.863 27.7302 101.1 27.2614C100.338 26.7927 99.7461 26.1369 99.3247 25.2941C98.9033 24.4513 98.6926 23.4664 98.6926 22.3395C98.6926 21.2079 98.9033 20.2183 99.3247 19.3708C99.7461 18.5233 100.338 17.8651 101.1 17.3964C101.863 16.9276 102.755 16.6932 103.778 16.6932C104.801 16.6932 105.693 16.9276 106.455 17.3964C107.218 17.8651 107.81 18.5233 108.231 19.3708C108.652 20.2183 108.863 21.2079 108.863 22.3395C108.863 23.4664 108.652 24.4513 108.231 25.2941C107.81 26.1369 107.218 26.7927 106.455 27.2614C105.693 27.7302 104.801 27.9645 103.778 27.9645ZM103.785 26.1819C104.448 26.1819 104.997 26.0067 105.433 25.6563C105.868 25.3059 106.19 24.8395 106.399 24.2572C106.612 23.6748 106.718 23.0332 106.718 22.3324C106.718 21.6364 106.612 20.9972 106.399 20.4148C106.19 19.8277 105.868 19.3566 105.433 19.0015C104.997 18.6464 104.448 18.4688 103.785 18.4688C103.117 18.4688 102.563 18.6464 102.123 19.0015C101.687 19.3566 101.363 19.8277 101.15 20.4148C100.942 20.9972 100.838 21.6364 100.838 22.3324C100.838 23.0332 100.942 23.6748 101.15 24.2572C101.363 24.8395 101.687 25.3059 102.123 25.6563C102.563 26.0067 103.117 26.1819 103.785 26.1819Z" fill="#007ACC"/>
<path d="M96.727 17.929H94.5111C94.4258 17.4555 94.2672 17.0388 94.0352 16.679C93.8032 16.3191 93.5191 16.0137 93.1829 15.7628C92.8468 15.5118 92.4703 15.3224 92.0537 15.1946C91.6417 15.0668 91.2038 15.0028 90.7397 15.0028C89.9017 15.0028 89.1512 15.2135 88.4883 15.6349C87.8302 16.0563 87.3093 16.6742 86.9258 17.4886C86.547 18.303 86.3576 19.2973 86.3576 20.4716C86.3576 21.6553 86.547 22.6544 86.9258 23.4688C87.3093 24.2831 87.8326 24.8987 88.4954 25.3153C89.1583 25.732 89.904 25.9403 90.7326 25.9403C91.1919 25.9403 91.6275 25.8788 92.0395 25.7557C92.4561 25.6278 92.8326 25.4408 93.1687 25.1946C93.5049 24.9484 93.789 24.6477 94.021 24.2926C94.2577 23.9328 94.4211 23.5208 94.5111 23.0568L96.727 23.0639C96.6086 23.7789 96.379 24.437 96.038 25.0384C95.7019 25.6349 95.2686 26.151 94.7383 26.5866C94.2128 27.0175 93.6114 27.3513 92.9343 27.5881C92.2573 27.8248 91.5186 27.9432 90.7184 27.9432C89.459 27.9432 88.3368 27.6449 87.352 27.0483C86.3671 26.447 85.5906 25.5876 85.0224 24.4702C84.459 23.3527 84.1772 22.0199 84.1772 20.4716C84.1772 18.9186 84.4613 17.5857 85.0295 16.473C85.5977 15.3556 86.3742 14.4986 87.3591 13.902C88.3439 13.3007 89.4637 13 90.7184 13C91.4902 13 92.2099 13.1113 92.8775 13.3338C93.5499 13.5516 94.1536 13.8736 94.6886 14.2997C95.2236 14.7211 95.6664 15.2372 96.0167 15.848C96.3671 16.4541 96.6039 17.1477 96.727 17.929Z" fill="#007ACC"/>
<path d="M74.4153 17.0199C74.3395 16.3475 74.027 15.8267 73.4778 15.4574C72.9285 15.0833 72.2372 14.8963 71.4039 14.8963C70.8073 14.8963 70.2912 14.991 69.8556 15.1804C69.42 15.3651 69.0815 15.6207 68.84 15.9474C68.6032 16.2694 68.4849 16.6364 68.4849 17.0483C68.4849 17.3939 68.5654 17.6922 68.7263 17.9432C68.8921 18.1941 69.1075 18.4048 69.3726 18.5753C69.6425 18.741 69.9314 18.8807 70.2391 18.9943C70.5469 19.1032 70.8428 19.1932 71.1269 19.2642L72.5474 19.6335C73.0114 19.7472 73.4872 19.901 73.9749 20.0952C74.4626 20.2893 74.9148 20.545 75.3315 20.8622C75.7481 21.1795 76.0843 21.5724 76.34 22.0412C76.6004 22.5099 76.7306 23.071 76.7306 23.7244C76.7306 24.5483 76.5175 25.2798 76.0914 25.919C75.67 26.5582 75.0568 27.0625 74.2519 27.4318C73.4517 27.8011 72.4834 27.9858 71.3471 27.9858C70.2581 27.9858 69.3158 27.813 68.5204 27.4673C67.7249 27.1217 67.1023 26.6316 66.6525 25.9972C66.2027 25.358 65.9541 24.6004 65.9067 23.7244H68.1084C68.1511 24.25 68.3215 24.688 68.6198 25.0384C68.9228 25.384 69.3087 25.642 69.7775 25.8125C70.251 25.9782 70.7694 26.0611 71.3329 26.0611C71.9531 26.0611 72.5048 25.964 72.9877 25.7699C73.4754 25.571 73.8589 25.2964 74.1383 24.946C74.4176 24.5909 74.5573 24.1766 74.5573 23.7031C74.5573 23.2723 74.4342 22.9195 74.188 22.6449C73.9465 22.3703 73.6174 22.143 73.2008 21.9631C72.7888 21.7831 72.3225 21.6245 71.8016 21.4872L70.0829 21.0185C68.9181 20.7012 67.9948 20.2348 67.313 19.6193C66.6359 19.0038 66.2974 18.1894 66.2974 17.1761C66.2974 16.3381 66.5246 15.6065 66.9792 14.9815C67.4337 14.3565 68.0493 13.8712 68.8258 13.5256C69.6023 13.1752 70.4782 13 71.4536 13C72.4385 13 73.3073 13.1728 74.0601 13.5185C74.8177 13.8641 75.4143 14.34 75.8499 14.946C76.2855 15.5473 76.5128 16.2386 76.5317 17.0199H74.4153Z" fill="#007ACC"/>
<path d="M53.7494 13.1989L57.7977 25.0454H57.961L62.0093 13.1989H64.3815L59.1471 27.7443H56.6116L51.3772 13.1989H53.7494Z" fill="#007ACC"/>
</g>
<defs>
<filter id="filter0_d_896_254" x="-7.98056" y="1.3317" width="56.6911" height="46.8982" filterUnits="userSpaceOnUse" color-interpolation-filters="sRGB">
<feFlood flood-opacity="0" result="BackgroundImageFix"/>
<feColorMatrix in="SourceAlpha" type="matrix" values="0 0 0 0 0 0 0 0 0 0 0 0 0 0 0 0 0 0 127 0" result="hardAlpha"/>
<feOffset/>
<feGaussianBlur stdDeviation="4.16667"/>
<feColorMatrix type="matrix" values="0 0 0 0 0 0 0 0 0 0 0 0 0 0 0 0 0 0 0.25 0"/>
<feBlend mode="overlay" in2="BackgroundImageFix" result="effect1_dropShadow_896_254"/>
<feBlend mode="normal" in="SourceGraphic" in2="effect1_dropShadow_896_254" result="shape"/>
</filter>
<filter id="filter1_d_896_254" x="19.5439" y="-8.23019" width="29.1667" height="56.4605" filterUnits="userSpaceOnUse" color-interpolation-filters="sRGB">
<feFlood flood-opacity="0" result="BackgroundImageFix"/>
<feColorMatrix in="SourceAlpha" type="matrix" values="0 0 0 0 0 0 0 0 0 0 0 0 0 0 0 0 0 0 127 0" result="hardAlpha"/>
<feOffset/>
<feGaussianBlur stdDeviation="4.16667"/>
<feColorMatrix type="matrix" values="0 0 0 0 0 0 0 0 0 0 0 0 0 0 0 0 0 0 0.25 0"/>
<feBlend mode="overlay" in2="BackgroundImageFix" result="effect1_dropShadow_896_254"/>
<feBlend mode="normal" in="SourceGraphic" in2="effect1_dropShadow_896_254" result="shape"/>
</filter>
<linearGradient id="paint0_linear_896_254" x1="20.3528" y1="0.103271" x2="20.3528" y2="39.8971" gradientUnits="userSpaceOnUse">
<stop stop-color="white"/>
<stop offset="1" stop-color="white" stop-opacity="0"/>
</linearGradient>
<clipPath id="clip0_896_254">
<rect width="133" height="40" fill="white" transform="translate(0.377197)"/>
</clipPath>
</defs>
</svg>
